<svg xmlns="http://www.w3.org/2000/svg" width="48" height="48" fill="none" xmlns:v="https://vecta.io/nano"><rect width="48" height="48" rx="24" fill="#2c68fa"/><path fill-rule="evenodd" d="M17.823 14.294c-2.924 0-5.294 2.37-5.294 5.294v12.353c0 .487.395.882.882.882h16.765c2.924 0 5.294-2.37 5.294-5.294v-7.941c0-2.924-2.37-5.294-5.294-5.294H17.823zm2.831 9.486c0-.792-.642-1.434-1.434-1.434s-1.434.642-1.434 1.434.642 1.434 1.434 1.434 1.434-.642 1.434-1.434zm4.779 0c0-.792-.642-1.434-1.434-1.434s-1.434.642-1.434 1.434.642 1.434 1.434 1.434 1.434-.642 1.434-1.434zm4.779 0c0-.792-.642-1.434-1.434-1.434s-1.434.642-1.434 1.434.642 1.434 1.434 1.434 1.434-.642 1.434-1.434z" fill="#fff"/></svg>