<svg width="194" height="109" viewBox="0 0 194 109" fill="none" xmlns="http://www.w3.org/2000/svg">
<path fill-rule="evenodd" clip-rule="evenodd" d="M33.6138 3.47631C33.8582 3.23186 34.2546 3.23186 34.499 3.47631C35.137 4.11423 35.1449 4.91835 35.1449 5.49506C35.1449 6.29938 35.1978 7.07881 35.2528 7.88993C35.2711 8.15983 35.2896 8.43324 35.3065 8.71225C35.3576 9.55397 35.5796 10.3839 35.8215 11.2883C35.8316 11.3259 35.8417 11.3636 35.8518 11.4015C36.0988 12.326 36.3589 13.3288 36.3783 14.3749C36.4107 16.1216 36.4346 17.9335 36.2108 19.7236C35.9972 21.4329 35.4764 23.1039 34.6903 24.6346C34.4708 25.0621 34.2924 25.5172 34.1001 26.0076C34.0708 26.0823 34.0412 26.1578 34.0111 26.2341C33.7892 26.7966 33.5419 27.3974 33.2038 27.9543C32.8941 28.4643 32.4354 28.9342 31.8522 29.2258C30.529 29.8874 29.218 30.6263 27.9397 31.4024C27.8594 31.4512 27.7693 31.5171 27.6537 31.6052C27.6358 31.6189 27.6171 31.6332 27.5977 31.648C27.5015 31.7217 27.3896 31.8075 27.2765 31.8859C27.0153 32.067 26.6277 32.2985 26.1586 32.2985H22.3125C21.4202 32.2985 20.5275 32.2954 19.6347 32.2923C15.2906 32.2772 10.9465 32.262 6.6611 32.6049C5.59622 32.6901 4.5336 32.8254 3.49038 33.0241C3.29299 33.0617 3.04682 33.0841 2.83404 33.1034C2.7575 33.1103 2.68528 33.1169 2.6212 33.1236C2.45549 33.141 2.32132 33.1608 2.21505 33.1844C3.59832 34.6019 5.05539 35.9359 6.59962 37.1713C6.91746 37.4256 7.22884 37.6928 7.54476 37.9639C8.06046 38.4064 8.58824 38.8593 9.176 39.2834C10.0998 39.9498 11.0042 40.4087 11.8848 40.4527C12.2301 40.47 12.496 40.7639 12.4787 41.1092C12.4614 41.4545 12.1675 41.7204 11.8223 41.7031C10.5731 41.6406 9.42483 41.0065 8.44357 40.2987C7.82637 39.8534 7.20567 39.3225 6.65412 38.8507C6.35022 38.5907 6.0673 38.3487 5.81755 38.1489C4.1243 36.7943 2.53656 35.3272 1.03754 33.7682C0.901134 33.6263 0.753659 33.4573 0.673351 33.2713C0.628847 33.1682 0.583142 33.0109 0.614669 32.8258C0.648578 32.6266 0.756324 32.4831 0.862554 32.3918C0.957306 32.3103 1.05636 32.2649 1.11489 32.2408C1.17703 32.2151 1.24037 32.195 1.28347 32.1815C1.29286 32.1786 1.30189 32.1757 1.31059 32.173C1.39584 32.1464 1.44938 32.1296 1.50384 32.1049C1.82404 31.9593 2.20129 31.9089 2.49037 31.8785C2.60208 31.8668 2.70188 31.8578 2.79271 31.8496C2.97547 31.8331 3.12193 31.8199 3.25613 31.7943C4.34976 31.586 5.45777 31.4452 6.56126 31.3569C10.9036 31.0096 15.3099 31.025 19.6549 31.0403C20.5437 31.0435 21.4299 31.0466 22.3125 31.0466H26.1586C26.2238 31.0466 26.3414 31.0109 26.5632 30.8571C26.6496 30.7971 26.7334 30.733 26.8289 30.6599C26.8503 30.6436 26.8722 30.6268 26.8948 30.6096C27.0106 30.5213 27.1473 30.4189 27.29 30.3323C28.5908 29.5425 29.9323 28.7861 31.2924 28.106C31.6324 27.936 31.9263 27.6461 32.1337 27.3046C32.4111 26.8476 32.6253 26.3355 32.8465 25.7747C32.8748 25.7029 32.9034 25.6301 32.9322 25.5565C33.1223 25.0709 33.3259 24.551 33.5767 24.0627C34.2969 22.6603 34.7734 21.13 34.9686 19.5683C35.1797 17.8795 35.1591 16.1529 35.1266 14.3981C35.1105 13.5256 34.8929 12.6625 34.6423 11.7247C34.629 11.6748 34.6155 11.6246 34.602 11.5742C34.3683 10.7021 34.1158 9.75977 34.0569 8.78798C34.0412 8.52916 34.0235 8.26843 34.0057 8.00597C33.9499 7.1844 33.893 6.34577 33.893 5.49506C33.893 4.89056 33.8478 4.59559 33.6138 4.36155C33.3693 4.1171 33.3693 3.72076 33.6138 3.47631Z" fill="white"/>
<path fill-rule="evenodd" clip-rule="evenodd" d="M11.2468 43.3828V55.7866C11.2468 58.7204 11.5758 61.2526 12.371 64.0621C12.9488 66.1038 13.9095 68.1808 14.9973 70.0216L15.0667 70.1391C17.4856 74.2327 19.8999 78.3184 22.4236 82.3333C23.2716 83.6826 24.1664 85.1357 24.8948 86.5924C25.1128 87.0285 25.432 87.7163 25.432 88.3799C25.432 89.3314 25.3097 90.2451 25.1693 91.1245C25.1331 91.3511 25.0959 91.574 25.0592 91.7946C24.951 92.444 24.846 93.0743 24.7775 93.7224C24.6598 94.8348 24.5827 95.9453 24.5047 97.0683C24.476 97.4812 24.4472 97.8958 24.4162 98.3128C24.3018 99.8541 24.1584 101.413 23.8803 102.967C23.6719 104.132 23.6953 105.335 23.7197 106.587C23.7242 106.816 23.7287 107.046 23.7318 107.278C23.9457 107.13 24.1759 106.971 24.4118 106.827C28.4597 104.361 32.2423 101.429 35.9402 98.4138C36.6328 97.8489 37.3372 97.2576 38.0456 96.663C38.9169 95.9316 39.7942 95.1951 40.6634 94.4964C40.7739 94.4076 40.8826 94.3224 40.9883 94.2395C41.4443 93.8821 41.8457 93.5676 42.1052 93.1851C42.3593 92.8106 42.5998 92.4153 42.7146 92.0709C42.8239 91.7429 43.1784 91.5657 43.5064 91.675C43.8343 91.7843 44.0116 92.1388 43.9023 92.4668C43.7283 92.9887 43.3996 93.5072 43.1411 93.8881C42.7595 94.4505 42.161 94.9157 41.7015 95.2729C41.6105 95.3435 41.5251 95.41 41.4478 95.4721C40.5675 96.1798 39.7245 96.8878 38.8757 97.6008C38.1731 98.191 37.4665 98.7845 36.7313 99.384C33.0223 102.409 29.1864 105.384 25.0632 107.897C24.8549 108.023 24.6516 108.164 24.4305 108.317C24.3976 108.34 24.3643 108.363 24.3306 108.386C24.0774 108.561 23.8013 108.749 23.5082 108.911C23.3839 108.98 23.1525 109.056 22.8979 108.942C22.6746 108.842 22.58 108.657 22.5461 108.578C22.4786 108.42 22.4729 108.252 22.4711 108.184C22.4686 108.09 22.4733 107.997 22.4773 107.932C22.4832 107.837 22.484 107.837 22.484 107.842C22.484 107.475 22.4764 107.093 22.4686 106.703C22.4431 105.423 22.4156 104.045 22.648 102.746C22.9143 101.258 23.0541 99.7509 23.1678 98.2201C23.1977 97.8164 23.226 97.4099 23.2543 97.0016C23.3328 95.8714 23.4123 94.7274 23.5325 93.5907C23.6054 92.902 23.7191 92.2193 23.8289 91.5605C23.8645 91.3467 23.8997 91.1353 23.933 90.927C24.0709 90.0635 24.18 89.2292 24.18 88.3799C24.18 88.048 24.0016 87.6055 23.775 87.1523C23.0768 85.7559 22.2116 84.3486 21.3636 82.9996C18.8307 78.9699 16.409 74.8716 13.9928 70.7827L13.9195 70.6585C12.7905 68.748 11.78 66.5714 11.1664 64.403C10.3379 61.4758 9.99487 58.8284 9.99487 55.7866V43.3837L11.2468 43.3828Z" fill="white"/>
<path fill-rule="evenodd" clip-rule="evenodd" d="M68.9996 79.4985C69.1542 79.8077 69.0288 80.1837 68.7196 80.3383L68.7195 80.3384C68.7173 80.3398 68.6714 80.3684 68.5884 80.471C68.509 80.5693 68.4238 80.6998 68.3342 80.8547C68.2453 81.0083 68.1608 81.1705 68.078 81.3308L68.0601 81.3655C67.9867 81.5075 67.9094 81.6571 67.8393 81.7758C67.455 82.4261 67.0618 83.1117 66.7151 83.7705C66.3653 84.435 65.8616 84.864 65.4096 85.249C65.373 85.2802 65.3366 85.3111 65.3008 85.3419C64.351 86.1559 63.3756 86.9877 62.2939 87.7088C59.5863 89.5139 56.6099 91.0131 53.5749 92.1513C52.245 92.65 50.7486 92.747 49.3061 92.7309C48.612 92.7232 47.9151 92.6888 47.2457 92.6558L47.1571 92.6514C46.4555 92.6168 45.787 92.5852 45.1575 92.5852C44.8118 92.5852 44.5315 92.3049 44.5315 91.9592C44.5315 91.6135 44.8118 91.3332 45.1575 91.3332C45.8227 91.3332 46.5215 91.3666 47.2188 91.401L47.2995 91.405C47.9751 91.4383 48.6505 91.4717 49.32 91.4791C50.7195 91.4946 52.0272 91.3946 53.1353 90.9791C56.086 89.8725 58.9761 88.4161 61.5995 86.6671C62.609 85.9941 63.5299 85.2109 64.486 84.3913C64.51 84.3707 64.5337 84.3505 64.557 84.3305C65.0444 83.9133 65.3734 83.6317 65.6072 83.1874C65.9677 82.5025 66.3726 81.7971 66.7615 81.1389C66.8127 81.0523 66.8743 80.9331 66.9559 80.7752L66.9658 80.756C67.0481 80.5969 67.145 80.4103 67.2505 80.2279C67.3552 80.0468 67.4774 79.854 67.6148 79.684C67.7463 79.5214 67.9267 79.3351 68.1597 79.2186C68.469 79.064 68.8449 79.1893 68.9996 79.4985Z" fill="white"/>
<path fill-rule="evenodd" clip-rule="evenodd" d="M35.687 81.1262C35.0646 81.1149 34.5025 81.1047 33.9965 81.2312C33.3886 81.3832 32.7579 81.8281 32.1377 82.4358C31.5257 83.0355 30.9843 83.7322 30.535 84.3123C28.9251 86.3909 27.6781 88.7733 26.7816 91.2516C26.3535 92.4353 26.0804 93.479 26.0804 94.6626C26.0804 95.0083 25.8001 95.2886 25.4544 95.2886C25.1087 95.2886 24.8284 95.0083 24.8284 94.6626C24.8284 93.2715 25.1538 92.0716 25.6044 90.8258C26.5388 88.2423 27.8448 85.7412 29.5452 83.5457L29.5481 83.542C29.9909 82.9702 30.5807 82.2087 31.2614 81.5417C31.9354 80.8812 32.7608 80.2497 33.6928 80.0167C34.3776 79.8455 35.1671 79.8616 35.8102 79.8748C35.9694 79.878 36.1196 79.8811 36.2571 79.8811C37.332 79.8811 38.0268 80.3979 38.6716 80.9597C39.9301 82.0565 41.0496 83.3469 41.9457 84.7634C43.2395 86.8089 44.4913 89.1544 45.2731 91.4997C45.3824 91.8276 45.2051 92.1821 44.8772 92.2915C44.5492 92.4008 44.1947 92.2235 44.0854 91.8956C43.3472 89.681 42.1512 87.4303 40.8876 85.4327C40.0588 84.1224 39.0197 82.9237 37.8491 81.9035C37.253 81.3841 36.8556 81.133 36.2571 81.133C36.0617 81.133 35.8717 81.1296 35.687 81.1262Z" fill="white"/>
<path fill-rule="evenodd" clip-rule="evenodd" d="M23.4988 34.0581C23.6905 33.7705 24.0792 33.6927 24.3668 33.8845C24.6532 34.0754 24.9267 34.3164 25.1605 34.5224C25.2387 34.5913 25.3125 34.6563 25.3808 34.7142C25.5159 34.8288 25.6597 34.9471 25.8087 35.0697C26.5904 35.713 27.5155 36.4743 28.0938 37.4285C28.8145 38.6177 28.7879 39.9457 28.7653 41.0749C28.7624 41.2235 28.7594 41.3685 28.7583 41.5094C28.7518 42.3203 28.6441 43.2093 28.2495 44.0247C27.6404 45.2834 26.6844 46.1233 25.6375 46.763C24.8275 47.258 23.9253 47.653 23.0777 48.0242C22.8508 48.1236 22.6278 48.2213 22.4116 48.3187C21.1715 48.8772 19.9465 49.4409 18.7187 50.0058C17.7128 50.4686 16.7051 50.9323 15.686 51.3946C15.6013 51.433 15.4381 51.4882 15.2901 51.5383C15.2777 51.5425 15.2654 51.5467 15.2533 51.5508C15.0724 51.6121 14.8605 51.6839 14.6558 51.7592C14.4471 51.8361 14.266 51.9093 14.1421 51.9713C14.1247 51.98 14.1097 51.9878 14.0968 51.9948C13.9666 52.1699 13.7485 52.2717 13.5166 52.2427C13.1735 52.1998 12.9302 51.887 12.9731 51.544C12.995 51.3686 13.0787 51.2452 13.131 51.1807C13.1869 51.1117 13.2475 51.0603 13.2935 51.0254C13.3856 50.9553 13.4907 50.8973 13.5823 50.8515C13.7705 50.7574 14.0047 50.6649 14.2232 50.5844C14.4442 50.5031 14.6698 50.4266 14.8481 50.3662L14.8516 50.365C14.9426 50.3342 15.019 50.3083 15.0794 50.2871C15.1359 50.2673 15.1613 50.2574 15.1674 50.255C15.1687 50.2545 15.1691 50.2543 15.1688 50.2545C16.1695 49.8006 17.176 49.3375 18.1842 48.8736C19.4218 48.3042 20.662 47.7336 21.8975 47.1772C22.141 47.0675 22.3822 46.9618 22.6203 46.8574C23.4563 46.4908 24.2546 46.1408 24.9847 45.6947C25.9028 45.1337 26.6512 44.4537 27.1226 43.4794C27.4031 42.8996 27.5007 42.2202 27.5064 41.4994C27.5077 41.3445 27.5099 41.1934 27.5121 41.0461C27.5295 39.877 27.5436 38.936 27.0232 38.0774C26.5658 37.3228 25.8413 36.7233 25.0599 36.0768C24.8989 35.9435 24.7354 35.8083 24.5714 35.6693C24.4619 35.5765 24.3641 35.4903 24.2725 35.4097C24.0613 35.2236 23.8835 35.0669 23.6724 34.9262C23.3847 34.7344 23.307 34.3458 23.4988 34.0581Z" fill="white"/>
<path fill-rule="evenodd" clip-rule="evenodd" d="M15.4672 43.8471C15.535 43.5081 15.8647 43.2882 16.2037 43.356C16.5513 43.4255 16.8802 43.5787 17.1491 43.7153C17.2534 43.7683 17.3465 43.8174 17.4332 43.8631C17.5958 43.949 17.7356 44.0227 17.8826 44.0867C17.978 44.1283 18.1752 44.182 18.4554 44.2379C18.7211 44.291 19.0154 44.3374 19.2773 44.3764C19.3458 44.3867 19.4143 44.3967 19.48 44.4063C19.6516 44.4313 19.8052 44.4538 19.8961 44.4707C19.9247 44.476 19.9758 44.4858 20.0251 44.5008C20.0253 44.5009 20.0256 44.501 20.0261 44.5011C20.0368 44.5042 20.1269 44.5301 20.2167 44.5933C20.2171 44.5936 20.2177 44.594 20.2183 44.5944C20.2486 44.6157 20.4464 44.754 20.4798 45.0333C20.5231 45.3957 20.2656 45.5907 20.1965 45.6354C20.113 45.6893 20.0364 45.7101 20.0139 45.7161C19.9807 45.725 19.9527 45.7297 19.9361 45.7322C19.9024 45.7372 19.872 45.7394 19.8524 45.7405C19.8111 45.7429 19.7635 45.7435 19.7155 45.7435C19.6019 45.7435 19.4954 45.7133 19.4035 45.6604C19.3817 45.6572 19.3588 45.6538 19.3349 45.6503C19.263 45.6398 19.1821 45.628 19.0927 45.6147C18.8265 45.575 18.5074 45.5249 18.2104 45.4656C17.9279 45.4093 17.613 45.3348 17.3826 45.2345C17.1928 45.1518 16.9824 45.041 16.7964 44.9431C16.7198 44.9028 16.6473 44.8646 16.5821 44.8315C16.3278 44.7023 16.1275 44.6175 15.9582 44.5836C15.6192 44.5158 15.3994 44.1861 15.4672 43.8471Z" fill="white"/>
<path fill-rule="evenodd" clip-rule="evenodd" d="M51.3121 38.6604C51.6561 38.626 51.9628 38.877 51.9972 39.2209C51.9972 39.2209 51.9972 39.221 51.9972 39.221C51.9974 39.2218 52.0045 39.2654 52.0605 39.3617C52.1144 39.4544 52.1931 39.5616 52.2946 39.685C52.3744 39.7821 52.4572 39.8761 52.5443 39.975C52.5686 40.0026 52.5932 40.0305 52.6182 40.059C52.7248 40.1807 52.8448 40.3199 52.9389 40.454C53.0559 40.6209 53.1963 40.7762 53.3688 40.9661L53.3757 40.9737C53.5377 41.1521 53.7297 41.3635 53.897 41.6041C54.0049 41.7594 54.1067 41.922 54.1989 42.0693C54.2216 42.1056 54.2438 42.141 54.2653 42.1751C54.3791 42.3556 54.4831 42.5137 54.5964 42.6568C54.7636 42.868 54.9578 43.0703 55.1759 43.2918C55.2014 43.3177 55.2273 43.344 55.2535 43.3705C55.4444 43.5638 55.6526 43.7746 55.8442 43.9967L55.8515 44.0052C56.2026 44.4121 56.5324 44.7944 56.8818 45.044C57.3887 45.406 58.0365 45.5491 58.8089 45.5848C59.1922 45.6025 59.5888 45.5933 59.9985 45.5786C60.0808 45.5756 60.1641 45.5724 60.248 45.5692C60.573 45.5566 60.9069 45.5438 61.2259 45.5438C61.5716 45.5438 61.8519 45.824 61.8519 46.1697C61.8519 46.5155 61.5716 46.7957 61.2259 46.7957C60.9334 46.7957 60.6311 46.8073 60.3093 46.8197C60.2222 46.823 60.1336 46.8264 60.0434 46.8297C59.6287 46.8446 59.1889 46.8556 58.7512 46.8354C57.8815 46.7952 56.9484 46.6301 56.1542 46.0627C55.6794 45.7236 55.2633 45.2405 54.9449 44.8709C54.9284 44.8518 54.9122 44.833 54.8963 44.8145C54.7341 44.6266 54.5576 44.4477 54.3636 44.2511C54.3374 44.2245 54.3108 44.1976 54.2839 44.1702C54.0654 43.9483 53.8283 43.7035 53.6148 43.4338C53.4577 43.2354 53.3243 43.0298 53.2064 42.843C53.18 42.8011 53.1546 42.7605 53.1298 42.721C53.0394 42.5767 52.958 42.4467 52.8689 42.3185C52.7533 42.1521 52.6137 41.9968 52.442 41.8078C52.4374 41.8027 52.4327 41.7975 52.428 41.7923C52.2682 41.6165 52.0793 41.4085 51.9141 41.1731C51.8639 41.1016 51.7865 41.0095 51.6766 40.8842C51.6562 40.8608 51.6346 40.8363 51.6122 40.8109C51.5234 40.7102 51.4223 40.5953 51.3275 40.4801C51.2083 40.335 51.0813 40.1682 50.9783 39.9911C50.878 39.8187 50.7766 39.5967 50.7515 39.3455C50.7171 39.0015 50.9681 38.6948 51.3121 38.6604Z" fill="white"/>
<path fill-rule="evenodd" clip-rule="evenodd" d="M64.6892 60.1274C64.7985 60.4554 64.6212 60.8099 64.2933 60.9192C64.0616 60.9964 63.8529 61.1084 63.6201 61.251C63.5567 61.2898 63.487 61.334 63.4128 61.3809C63.2727 61.4696 63.1167 61.5683 62.9574 61.6604C62.957 61.6615 62.9565 61.6627 62.9561 61.664C62.9254 61.7471 62.9005 61.8445 62.8891 61.8958C62.8023 62.2866 62.7087 62.6785 62.6164 63.0652C62.5642 63.2836 62.5125 63.5003 62.4626 63.7142C62.2839 64.4798 62.2345 65.2438 62.2345 66.0854V71.9942C62.2345 72.3399 61.9542 72.6201 61.6085 72.6201C61.2628 72.6201 60.9826 72.3399 60.9826 71.9942V66.0854C60.9826 65.1973 61.0341 64.3267 61.2434 63.4298C61.2965 63.202 61.3497 62.9794 61.4024 62.7589C61.4928 62.38 61.5819 62.0072 61.667 61.6242C61.6849 61.5436 61.7241 61.3862 61.7818 61.23C61.8103 61.1528 61.85 61.0575 61.9032 60.9665C61.9448 60.8952 62.0461 60.7335 62.2334 60.6313C62.3994 60.5408 62.5413 60.4508 62.6992 60.3507C62.7819 60.2982 62.869 60.2429 62.9663 60.1834C63.2307 60.0214 63.5333 59.8529 63.8974 59.7315C64.2254 59.6222 64.5798 59.7994 64.6892 60.1274Z" fill="white"/>
<path fill-rule="evenodd" clip-rule="evenodd" d="M49.7577 3.0761C49.7078 3.08111 49.658 3.08611 49.6084 3.09107C48.1101 3.24089 46.4728 4.06223 44.9642 4.81906C44.8678 4.86741 44.7719 4.91551 44.6766 4.96314C42.9867 5.80812 41.0883 7.29708 40.1355 8.86242C39.4238 10.0317 39.6493 11.6309 40.4683 12.8082C40.6955 13.1348 40.9894 13.4205 41.337 13.7545L41.3585 13.7751C41.6855 14.0893 42.0619 14.4509 42.3642 14.8838C43.0422 15.8551 43.8396 16.7681 44.6484 17.6942C44.6831 17.7339 44.7178 17.7737 44.7525 17.8134C45.6696 18.8639 46.7942 19.6674 48.0501 20.3651C48.3538 20.5339 48.6468 20.6832 48.9504 20.8379C49.1605 20.945 49.3757 21.0547 49.6031 21.1752C50.1342 21.4566 50.6787 21.7714 51.1855 22.168C51.6348 22.5196 52.166 22.8188 52.7443 23.1121C52.9508 23.2168 53.1708 23.3243 53.3945 23.4335C53.7695 23.6166 54.1548 23.8048 54.5046 23.9939C55.0747 24.302 55.6066 24.6619 56.1086 25.0016L56.1392 25.0223C56.659 25.374 57.1485 25.7035 57.6645 25.9787C58.8404 26.6059 59.9969 27.2635 61.1453 27.9179L61.2736 27.9911C62.381 28.6222 63.4812 29.2493 64.5969 29.85C66.7193 30.9929 68.7416 32.3395 70.738 33.669C71.7412 34.337 72.7379 35.0007 73.7375 35.6321C75.8163 36.945 77.9949 38.0725 80.1966 39.2119C81.0413 39.6491 81.8894 40.088 82.7366 40.5399C83.9768 41.2013 85.2839 41.7359 86.6193 42.282C86.8272 42.367 87.0357 42.4523 87.2448 42.5384C87.9375 42.8237 88.5123 43.0313 89.128 43.0313C89.4737 43.0313 89.7539 43.3115 89.7539 43.6572C89.7539 44.003 89.4737 44.2832 89.128 44.2832C88.2388 44.2832 87.4574 43.9799 86.7681 43.696C86.564 43.612 86.3585 43.528 86.152 43.4435C84.8207 42.8993 83.4485 42.3383 82.1475 41.6445C81.3306 41.2088 80.5007 40.7793 79.6662 40.3475C77.4477 39.1993 75.1965 38.0343 73.069 36.6906C72.0136 36.024 70.9902 35.3422 69.975 34.6658C68.0105 33.3571 66.0771 32.0689 64.0033 30.9523C62.8741 30.3442 61.762 29.7104 60.6581 29.0813L60.5254 29.0056C59.3756 28.3503 58.2336 27.7011 57.0753 27.0834C56.4922 26.7724 55.9497 26.4057 55.4376 26.0592L55.4302 26.0542C54.912 25.7036 54.4242 25.3735 53.9093 25.0952C53.5755 24.9148 53.2393 24.7509 52.8869 24.5791C52.6587 24.4678 52.4236 24.3532 52.1781 24.2287C51.5789 23.9248 50.9608 23.5818 50.4139 23.1539C49.9931 22.8246 49.5241 22.5501 49.0169 22.2813C48.8293 22.1819 48.627 22.0786 48.4197 21.9728C48.0938 21.8063 47.7554 21.6336 47.4421 21.4595C46.1097 20.7193 44.8532 19.8324 43.8094 18.6368C43.7701 18.5918 43.7307 18.5466 43.6912 18.5014C42.894 17.5888 42.0557 16.6291 41.3376 15.6005C41.1112 15.2761 40.8178 14.9918 40.4696 14.6572L40.4542 14.6424C40.1251 14.3262 39.7456 13.9616 39.4406 13.5231C38.4242 12.0621 38.0268 9.91894 39.0661 8.21149C40.1804 6.38093 42.2954 4.75405 44.1167 3.84339C44.2257 3.78892 44.3372 3.7328 44.4511 3.6755C45.9042 2.94447 47.7428 2.01946 49.4838 1.84536C49.564 1.83734 49.6458 1.82904 49.7291 1.8206C51.2575 1.66565 53.2768 1.46093 54.8996 1.98145C56.9501 2.63915 58.8658 4.00621 60.4861 5.16737C62.4056 6.54303 64.0765 8.37835 65.6263 10.0808C65.8199 10.2934 66.0116 10.5039 66.2016 10.7112C67.4601 12.0842 69.0068 13.2323 70.665 14.298C71.4932 14.8303 72.3431 15.3382 73.1953 15.843C73.3069 15.9091 73.4186 15.9752 73.5303 16.0413C74.2684 16.4781 75.0066 16.9149 75.7206 17.3594C76.7715 18.0138 77.8504 18.6214 78.94 19.235C79.5133 19.5579 80.0896 19.8824 80.6663 20.2163C81.1137 20.4753 81.5397 20.7555 81.9465 21.023C82.0522 21.0925 82.1567 21.1612 82.2598 21.2284C82.7686 21.5599 83.261 21.8662 83.7936 22.1227C84.5888 22.5055 85.3808 22.8379 86.192 23.0288C86.2269 23.037 86.2801 23.0472 86.3603 23.0626C86.3816 23.0667 86.4049 23.0712 86.4303 23.076C86.5401 23.0972 86.6747 23.1239 86.8075 23.1559C86.9361 23.1868 87.0858 23.2278 87.2195 23.2825C87.2861 23.3098 87.3674 23.3479 87.4463 23.4009C87.517 23.4486 87.6399 23.5439 87.7206 23.7053C87.8752 24.0145 87.7499 24.3905 87.4407 24.5451C87.1954 24.6678 86.908 24.6142 86.7225 24.4324C86.6757 24.4154 86.6063 24.3951 86.5149 24.3731C86.4113 24.3482 86.3001 24.326 86.1931 24.3053C86.1758 24.302 86.158 24.2986 86.1399 24.2951C86.0569 24.2792 85.9683 24.2623 85.9052 24.2474C84.9629 24.0257 84.0753 23.6478 83.2505 23.2506C82.6422 22.9577 82.0946 22.615 81.5763 22.2773C81.4636 22.2038 81.3529 22.131 81.2432 22.059C80.8402 21.794 80.4525 21.5391 80.0391 21.2997C79.4902 20.982 78.9276 20.6651 78.3604 20.3456C77.2547 19.7227 76.1315 19.09 75.0589 18.4222C74.3579 17.9857 73.633 17.5568 72.8938 17.1194C72.782 17.0532 72.6697 16.9868 72.5572 16.9201C71.7044 16.4149 70.8373 15.8969 69.9881 15.3512C68.2916 14.2608 66.6426 13.045 65.2787 11.5572C65.0862 11.3471 64.8938 11.136 64.7012 10.9246C63.1384 9.20929 61.5612 7.4781 59.7568 6.18495C58.1054 5.00146 56.3482 3.76083 54.5172 3.17355C53.1516 2.73553 51.369 2.91442 49.7577 3.0761Z" fill="white"/>
<path fill-rule="evenodd" clip-rule="evenodd" d="M141.599 20.1674C141.754 19.8582 142.13 19.7329 142.439 19.8875C142.69 20.0129 142.984 20.096 143.33 20.1806C143.381 20.1931 143.434 20.2058 143.488 20.2188C143.777 20.2877 144.107 20.3665 144.401 20.4784C144.762 20.616 145.148 20.8306 145.425 21.22C145.706 21.6154 145.816 22.109 145.783 22.692C145.765 23.0266 145.618 23.2843 145.459 23.4723C145.311 23.6487 145.128 23.7896 145.002 23.8869L144.989 23.8968C144.849 24.0047 144.767 24.0679 144.706 24.132C144.687 24.1522 144.677 24.1657 144.672 24.1731C144.648 24.3368 144.574 24.4707 144.531 24.5429C144.477 24.6332 144.411 24.7222 144.347 24.8034C144.216 24.9666 144.052 25.1427 143.894 25.3041C143.602 25.6025 143.29 25.8881 143.158 26.0097C143.146 26.0205 143.136 26.03 143.127 26.0381C141.277 27.7397 139.138 28.9851 136.594 29.5055C136.414 29.5421 136.235 29.5789 136.057 29.6156C133.02 30.2389 129.996 30.8599 126.778 30.8599C126.19 30.8599 125.602 30.8613 125.014 30.8626C120.593 30.8729 116.17 30.8833 111.72 30.3111C107.54 29.7737 103.553 28.8466 99.5855 27.4389C98.546 27.0701 97.5569 26.6205 96.594 26.1739C96.4944 26.1277 96.3951 26.0816 96.2961 26.0356C95.4305 25.6334 94.5843 25.2401 93.7088 24.8976C92.3888 24.381 91.1826 24.3839 89.6722 24.3875C89.5439 24.3878 89.4134 24.3881 89.2804 24.3881C88.9347 24.3881 88.6545 24.1079 88.6545 23.7622C88.6545 23.4165 88.9347 23.1362 89.2804 23.1362C89.4202 23.1362 89.5595 23.1357 89.6984 23.1352C91.1748 23.1298 92.6134 23.1246 94.165 23.7317C95.079 24.0894 95.9613 24.4995 96.8222 24.8996C96.922 24.9459 97.0214 24.9922 97.1206 25.0382C98.0832 25.4846 99.0253 25.9117 100.004 26.2591C103.883 27.6353 107.783 28.5427 111.88 29.0694C116.243 29.6304 120.58 29.6206 125.009 29.6106C125.597 29.6093 126.187 29.608 126.778 29.608C129.864 29.608 132.773 29.0112 135.837 28.3825C136.005 28.3481 136.174 28.3135 136.343 28.279C138.623 27.8125 140.564 26.6948 142.279 25.1168C142.289 25.1083 142.299 25.0986 142.311 25.0878C142.444 24.9652 142.732 24.7008 143 24.4275C143.147 24.2779 143.277 24.1366 143.369 24.0219C143.405 23.9761 143.43 23.9414 143.446 23.9174C143.502 23.6329 143.656 23.4207 143.797 23.2718C143.929 23.1321 144.089 23.0095 144.203 22.9217C144.215 22.9126 144.227 22.9038 144.238 22.8954C144.374 22.7902 144.452 22.7246 144.503 22.6649C144.524 22.6394 144.532 22.6249 144.534 22.6206C144.534 22.6205 144.534 22.6205 144.534 22.6204C144.555 22.234 144.476 22.0462 144.404 21.945C144.328 21.8376 144.198 21.7408 143.955 21.6483C143.744 21.5679 143.509 21.5114 143.219 21.4419C143.16 21.4275 143.097 21.4126 143.033 21.3968C142.68 21.3106 142.267 21.2008 141.879 21.0073C141.57 20.8527 141.445 20.4767 141.599 20.1674ZM143.464 23.8866C143.464 23.8865 143.463 23.8889 143.46 23.8941C143.462 23.8892 143.464 23.8867 143.464 23.8866Z" fill="white"/>
<path fill-rule="evenodd" clip-rule="evenodd" d="M134.108 5.78115C135.506 5.23034 137.061 4.63436 138.785 4.84986C140 5.00183 140.617 5.93665 140.938 6.80936C141.001 6.9831 141.064 7.12724 141.133 7.28654C141.186 7.40717 141.242 7.53649 141.305 7.69393C141.435 8.01635 141.562 8.38885 141.603 8.80134C141.655 9.31486 141.643 9.8588 141.611 10.3425H143.996C144.145 10.3425 144.503 10.345 144.848 10.4153C145.018 10.4501 145.227 10.5093 145.416 10.6202C145.608 10.7331 145.838 10.9372 145.912 11.2723C146.115 12.1831 145.907 13.0955 145.532 13.8767C145.276 14.4109 144.932 14.9054 144.551 15.3283C144.557 15.3297 144.564 15.3312 144.57 15.3327C145.195 15.4796 145.773 15.8223 146.221 16.2013C146.461 16.4044 146.564 16.6921 146.615 16.8942C146.672 17.1162 146.694 17.3568 146.7 17.5763C146.712 18.0045 146.661 18.4696 146.582 18.7417C146.267 19.8205 145.286 20.3464 144.585 20.6742C143.726 21.0767 143.002 21.1063 142.188 21.1063C141.843 21.1063 141.562 20.826 141.562 20.4803C141.562 20.1346 141.843 19.8543 142.188 19.8543C142.963 19.8543 143.455 19.8212 144.055 19.5404C144.769 19.2058 145.237 18.88 145.38 18.3911C145.412 18.2812 145.458 17.954 145.449 17.6097C145.444 17.443 145.427 17.3023 145.402 17.2018C145.393 17.1659 145.385 17.1428 145.379 17.1295C145.046 16.8546 144.655 16.6387 144.283 16.5513C143.893 16.4595 143.551 16.3903 143.228 16.3903C143.186 16.3903 143.13 16.3879 143.068 16.3765C143.013 16.3662 142.909 16.3412 142.803 16.2691C142.681 16.1861 142.561 16.0417 142.527 15.8384C142.498 15.6584 142.55 15.5162 142.585 15.4445C142.649 15.3128 142.744 15.2274 142.774 15.1999C142.821 15.1585 142.869 15.1226 142.907 15.0953C142.982 15.0421 143.067 14.9894 143.125 14.9538L143.129 14.9509C143.162 14.9309 143.184 14.917 143.201 14.9061M143.201 14.9061C143.668 14.497 144.113 13.9406 144.403 13.3351C144.676 12.7665 144.795 12.1938 144.714 11.672C144.685 11.6625 144.647 11.652 144.597 11.642C144.386 11.5989 144.138 11.5944 143.996 11.5944H141.451C141.43 11.5944 141.421 11.5958 141.42 11.5961C141.419 11.5962 141.419 11.5961 141.417 11.5969C141.413 11.5982 141.403 11.602 141.38 11.6132C141.363 11.6214 141.345 11.6307 141.321 11.6434C141.314 11.649 141.308 11.654 141.301 11.6597C141.292 11.6674 141.281 11.6765 141.263 11.6907C141.24 11.7099 141.198 11.7432 141.157 11.7718C141.14 11.7834 141.094 11.8141 141.036 11.8404C141.009 11.8521 140.941 11.8812 140.85 11.8926C140.77 11.9026 140.527 11.9152 140.325 11.7131C140.2 11.5885 140.165 11.4498 140.155 11.4046C140.141 11.3449 140.139 11.2952 140.138 11.2689C140.137 11.2148 140.142 11.1683 140.145 11.1438C140.152 11.0898 140.164 11.0331 140.174 10.9871C140.195 10.8909 140.226 10.7722 140.255 10.6632C140.267 10.6182 140.279 10.5751 140.29 10.534C140.307 10.4693 140.323 10.4094 140.337 10.3548C140.348 10.3112 140.357 10.278 140.362 10.2548C140.362 10.254 140.362 10.2532 140.362 10.2524C140.391 9.80407 140.399 9.34005 140.358 8.92591C140.334 8.68787 140.257 8.44387 140.144 8.16108C140.108 8.07174 140.061 7.96297 140.011 7.84612C139.926 7.64922 139.832 7.4294 139.762 7.24105C139.504 6.53774 139.151 6.15731 138.629 6.09211C137.266 5.92167 135.997 6.38265 134.567 6.94595C134.404 7.00995 134.346 7.04823 134.316 7.07382C134.293 7.09355 134.256 7.13083 134.196 7.25186C134.041 7.56107 133.665 7.6864 133.356 7.5318C133.047 7.37719 132.921 7.00119 133.076 6.69198C133.183 6.47855 133.312 6.28465 133.505 6.12032C133.691 5.96186 133.9 5.86318 134.108 5.78115" fill="white"/>
<path fill-rule="evenodd" clip-rule="evenodd" d="M103.235 0.848366C103.164 0.513632 102.836 0.297517 102.5 0.364816C102.161 0.432615 101.941 0.762387 102.009 1.10138C102.057 1.34152 102.178 1.53933 102.29 1.68566C102.405 1.83581 102.541 1.96945 102.666 2.08124C102.789 2.19212 102.918 2.29558 103.023 2.38042L103.028 2.38417C103.143 2.47671 103.22 2.53938 103.272 2.58863C104.083 3.35304 105.112 3.92609 106.007 4.4249C106.096 4.47426 106.183 4.52289 106.269 4.57091C109.883 6.59721 113.879 8.38103 118.039 9.10876C120.281 9.50083 122.511 9.78524 124.793 9.92078C125.066 9.937 125.356 9.96772 125.669 10.002C125.694 10.0047 125.718 10.0074 125.743 10.0101C126.029 10.0416 126.334 10.0751 126.639 10.0982C127.297 10.1482 128.017 10.1564 128.698 9.97665C129.491 9.76742 130.203 9.39361 130.852 9.01372C131.067 8.88821 131.271 8.76458 131.469 8.64436C131.894 8.38659 132.294 8.14446 132.717 7.933C133.026 7.7784 133.151 7.4024 132.997 7.09319C132.842 6.78398 132.466 6.65864 132.157 6.81325C131.687 7.04808 131.216 7.33372 130.769 7.6044C130.581 7.71823 130.397 7.82942 130.22 7.93306C129.596 8.29789 129.003 8.60139 128.378 8.76616C127.902 8.89175 127.35 8.89674 126.734 8.84991C126.451 8.8284 126.167 8.7972 125.876 8.76526C125.852 8.7627 125.829 8.76013 125.806 8.75756C125.495 8.72354 125.176 8.68938 124.867 8.67106C122.641 8.53883 120.458 8.26101 118.255 7.87556C114.292 7.18231 110.437 5.47237 106.881 3.47888C106.799 3.43277 106.716 3.38692 106.635 3.3412C105.713 2.82675 104.822 2.32912 104.131 1.67774C104.039 1.59105 103.924 1.49833 103.825 1.41867C103.821 1.41548 103.817 1.41231 103.813 1.40916C103.703 1.32042 103.599 1.2361 103.502 1.14951C103.405 1.06218 103.332 0.986791 103.283 0.923026C103.247 0.876727 103.237 0.852285 103.235 0.848366Z" fill="white"/>
<path fill-rule="evenodd" clip-rule="evenodd" d="M97.9482 47.6599C95.9474 46.6595 93.8915 46.6914 91.5536 46.8713C90.2426 46.9721 88.8716 47.4234 87.4884 47.8787C87.0734 48.0153 86.6573 48.1523 86.2414 48.2802C85.6325 48.4676 85.0316 48.9489 84.4476 49.5953C83.9427 50.1541 83.4982 50.7801 83.0982 51.3436C83.0393 51.4264 82.9815 51.5079 82.9245 51.5877C82.782 51.7871 82.6382 51.9864 82.4944 52.1856C81.4471 53.6362 80.3988 55.0882 79.8561 56.6561C79.5513 57.5367 79.1266 58.3819 78.7249 59.1811C78.696 59.2388 78.6671 59.2963 78.6384 59.3534C78.204 60.2194 77.8066 61.0348 77.5564 61.8688C77.2383 62.9293 76.8049 63.9514 76.3792 64.9395C76.3529 65.0005 76.3267 65.0613 76.3005 65.122C75.8979 66.0555 75.5081 66.9594 75.2036 67.8847C74.749 69.266 74.476 70.7623 74.2441 72.2409C74.1673 72.7306 74.0818 73.2033 73.9981 73.666C73.7656 74.9515 73.5473 76.1585 73.5693 77.4309C73.6086 79.7134 73.9552 82.0895 74.4196 84.3598C74.6127 85.3043 74.9919 86.1991 75.4529 87.102C75.6834 87.5535 75.9307 88 76.1835 88.4557L76.2004 88.4861C76.4461 88.9289 76.6969 89.3808 76.9317 89.8382C77.0339 90.0371 77.1489 90.2453 77.2735 90.471C77.3075 90.5325 77.3422 90.5954 77.3776 90.6597C77.5394 90.9541 77.7106 91.2715 77.8658 91.5984C78.1709 92.2411 78.4457 92.9831 78.4457 93.7363C78.4457 93.7617 78.4442 93.7868 78.4412 93.8115C79.7911 95.5132 82.0482 96.42 84.3256 97.2084C88.363 98.6059 92.8379 99.7467 97.0762 99.9641C98.6898 100.047 100.305 100.022 101.938 99.9974C102.73 99.9854 103.526 99.9733 104.329 99.9733C106.323 99.9733 107.787 99.5051 109.575 98.5608C113.712 96.3752 117.738 92.9472 120.28 89.0592C120.431 88.8281 120.584 88.6002 120.736 88.3731C121.1 87.8312 121.461 87.2938 121.785 86.7285C122.239 85.9366 122.581 85.1535 122.704 84.36C122.757 84.0136 122.761 83.6246 122.748 83.1974C122.744 83.0574 122.738 82.9078 122.731 82.7546C122.719 82.4679 122.706 82.1688 122.706 81.8966C122.706 79.6272 122.503 77.2951 122.181 75.0419C122.037 74.037 121.984 72.852 121.984 71.873C121.984 71.2187 121.803 70.5467 121.565 69.8028C121.524 69.6772 121.482 69.5487 121.439 69.4178C121.237 68.8051 121.019 68.1402 120.909 67.4809C120.674 66.0715 119.902 64.6966 119.133 63.3266C119.086 63.2439 119.04 63.1611 118.993 63.0784C118.532 62.2538 118.054 61.4654 117.499 60.7472C117.302 60.4917 117.162 60.2115 117.051 59.9907C117.046 59.9805 117.041 59.9704 117.036 59.9604C116.914 59.7164 116.822 59.5394 116.703 59.3909C116.598 59.2603 116.474 59.1468 116.303 58.9915L116.278 58.9683C116.108 58.813 115.893 58.6152 115.711 58.363C114.61 56.839 113.067 55.7189 111.348 54.704C110.642 54.2873 109.918 53.895 109.187 53.4989C109.028 53.4125 108.868 53.3259 108.708 53.2388C107.821 52.756 106.931 52.2608 106.095 51.719C104.858 50.9169 103.512 50.2454 102.124 49.6007C101.674 49.3916 101.216 49.1841 100.756 48.9757C99.8132 48.5481 98.8615 48.1166 97.9482 47.6599ZM76.5574 91.7787C76.3364 91.9334 76.2332 92.2203 76.3229 92.4894C77.5028 96.0292 81.0571 97.4018 83.9161 98.3914C88.0116 99.8091 92.6106 100.989 97.0121 101.214C98.6668 101.299 100.354 101.274 102.012 101.249C102.793 101.237 103.567 101.225 104.329 101.225C106.575 101.225 108.241 100.681 110.16 99.6678C114.455 97.3985 118.653 93.8356 121.328 89.7443C121.461 89.5403 121.603 89.3282 121.75 89.11C122.124 88.5537 122.524 87.9572 122.871 87.3513C123.361 86.4976 123.785 85.5608 123.941 84.5504C124.012 84.0874 124.013 83.6055 124 83.16C123.994 82.9834 123.987 82.8177 123.98 82.6584C123.969 82.3932 123.958 82.146 123.958 81.8966C123.958 79.555 123.748 77.1622 123.42 74.8648C123.288 73.9389 123.236 72.8175 123.236 71.873C123.236 71.0072 122.998 70.1733 122.757 69.4205C122.71 69.2745 122.663 69.1321 122.617 68.9927C122.418 68.3839 122.236 67.8308 122.144 67.275C121.871 65.6393 120.994 64.0808 120.25 62.7589C120.194 62.6602 120.139 62.5627 120.086 62.4667C119.613 61.6225 119.1 60.772 118.49 59.9817C118.371 59.8279 118.28 59.6479 118.155 59.4L118.151 59.3907C118.037 59.163 117.892 58.8727 117.68 58.6088C117.511 58.3976 117.316 58.2204 117.162 58.0802C117.148 58.0676 117.135 58.0553 117.122 58.0432C116.949 57.8856 116.824 57.7654 116.726 57.63C115.474 55.8962 113.754 54.6703 111.984 53.6259C111.256 53.1964 110.508 52.791 109.777 52.3944C109.619 52.309 109.462 52.224 109.306 52.1392C108.422 51.6576 107.568 51.182 106.776 50.6684C105.464 49.8178 104.055 49.117 102.651 48.4652C102.178 48.2456 101.709 48.0329 101.244 47.8221C100.314 47.4005 99.4008 46.9865 98.5081 46.5401C96.1738 45.373 93.809 45.4422 91.4576 45.623C89.979 45.7368 88.4053 46.2561 86.9995 46.72C86.6093 46.8488 86.232 46.9733 85.8733 47.0837C84.9402 47.3708 84.1535 48.0535 83.5187 48.756C82.9603 49.3739 82.4699 50.0652 82.0732 50.6246C82.0154 50.7061 81.9595 50.7847 81.9058 50.86C81.7693 51.0511 81.6285 51.2457 81.4851 51.4439C80.4492 52.8757 79.281 54.4905 78.6731 56.2466C78.3965 57.0455 78.0074 57.8203 77.5972 58.637C77.5714 58.6885 77.5454 58.7402 77.5194 58.7921C77.0891 59.65 76.643 60.5566 76.3573 61.509C76.0626 62.4913 75.657 63.4517 75.2294 64.4441C75.2016 64.5087 75.1737 64.5734 75.1457 64.6383C74.7481 65.5601 74.3372 66.5127 74.0144 67.4933C73.5261 68.9771 73.2408 70.5582 73.0073 72.0469C72.9407 72.4715 72.8623 72.9043 72.7827 73.344C72.5436 74.6642 72.2933 76.046 72.3176 77.4525C72.3587 79.8398 72.72 82.2982 73.193 84.6107C73.4188 85.7142 73.8543 86.7242 74.3379 87.6714C74.5798 88.145 74.8374 88.6099 75.0888 89.063L75.1016 89.0861C75.3503 89.5343 75.5925 89.9709 75.8181 90.4101C75.9297 90.6276 76.0568 90.8577 76.1828 91.0858C76.2156 91.145 76.2482 91.2041 76.2805 91.2629C76.3751 91.4348 76.4683 91.6066 76.5574 91.7787Z" fill="white"/>
<path fill-rule="evenodd" clip-rule="evenodd" d="M122.232 84.6971C122.541 84.5425 122.917 84.6678 123.071 84.977C123.166 85.1657 123.364 85.3703 123.673 85.6275C123.744 85.6868 123.825 85.7517 123.91 85.8202C124.144 86.0073 124.412 86.2222 124.614 86.4299C125.714 87.5589 126.598 88.7352 126.986 90.4118C127.252 91.5594 127.251 92.7798 127.251 93.8643C127.251 93.91 127.251 93.9555 127.251 94.0007C127.251 94.1434 127.252 94.2905 127.253 94.4411C127.258 95.3099 127.264 96.2933 127.102 97.1964C126.906 98.2867 126.252 99.2789 125.368 99.9065C124.288 100.673 123.148 100.892 122.03 100.912C121.477 100.922 120.921 100.883 120.382 100.837C120.236 100.824 120.092 100.811 119.949 100.798C119.555 100.763 119.171 100.728 118.781 100.707C115.816 100.544 112.854 100.546 109.865 100.548C109.521 100.548 109.175 100.549 108.83 100.549C108.484 100.549 108.204 100.268 108.204 99.9226C108.204 99.5769 108.484 99.2966 108.83 99.2966C109.175 99.2966 109.52 99.2964 109.866 99.2961C112.85 99.2939 115.848 99.2916 118.85 99.4566C119.264 99.4793 119.681 99.517 120.081 99.5533C120.219 99.5658 120.356 99.5782 120.489 99.5897C121.02 99.6353 121.522 99.669 122.008 99.6602C122.969 99.6428 123.835 99.459 124.643 98.8855C125.271 98.44 125.734 97.7299 125.87 96.9753C126.01 96.1959 126.005 95.3463 126.001 94.4718C126 94.3155 125.999 94.1584 125.999 94.0007C125.999 93.9733 125.999 93.9459 125.999 93.9185C125.999 92.7917 125.999 91.699 125.767 90.694C125.452 89.3352 124.742 88.3561 123.717 87.3033C123.572 87.1537 123.402 87.0178 123.197 86.8538C123.097 86.774 122.989 86.6875 122.872 86.5895C122.555 86.3261 122.173 85.979 121.952 85.5369C121.797 85.2277 121.922 84.8517 122.232 84.6971Z" fill="white"/>
<path fill-rule="evenodd" clip-rule="evenodd" d="M72.7871 77.2136C73.0316 77.4581 73.0316 77.8544 72.7871 78.0989C72.1816 78.7044 71.5448 79.2729 70.9235 79.8275L70.9177 79.8327C70.2901 80.393 69.6783 80.9394 69.1008 81.5169C68.1713 82.4464 67.6305 83.6397 67.0805 84.9699C66.6983 85.8945 66.2479 87.0111 66.0503 88.1091C65.8516 89.2137 65.9319 90.1723 66.4613 90.8782C68.4333 93.5074 71.4075 95.7959 74.6119 95.9844C75.7332 96.0504 76.8474 96.0777 77.9782 96.0777C78.3239 96.0777 78.6042 96.358 78.6042 96.7037C78.6042 97.0494 78.3239 97.3296 77.9782 97.3296C76.8272 97.3296 75.6881 97.3018 74.5384 97.2342C70.8117 97.0149 67.5387 94.4012 65.4598 91.6293C64.6233 90.514 64.5946 89.1298 64.8182 87.8874C65.0429 86.6385 65.5463 85.4042 65.9236 84.4915C66.4699 83.1702 67.0896 81.7576 68.2156 80.6316C68.82 80.0272 69.456 79.4594 70.077 78.905L70.0839 78.8988C70.7115 78.3386 71.3237 77.7918 71.9019 77.2136C72.1463 76.9692 72.5426 76.9692 72.7871 77.2136Z" fill="white"/>
<path fill-rule="evenodd" clip-rule="evenodd" d="M88.7765 83.7235C88.8795 83.5191 89.0913 83.3789 89.3358 83.3789C89.7329 83.3789 90.0729 83.5717 90.2929 83.7175C90.4123 83.7968 90.5242 83.8818 90.619 83.9551C90.6436 83.9742 90.6667 83.9921 90.6884 84.009C90.7561 84.0617 90.8114 84.1046 90.8648 84.1433L90.8677 84.1453C91.0559 84.2813 91.352 84.495 91.4705 84.8422C91.5959 85.2092 91.4742 85.5629 91.3817 85.8067C91.2074 86.2663 90.9351 86.9033 90.5823 87.4917C90.2431 88.0574 89.7708 88.6803 89.1587 88.9863C88.3033 89.414 87.4795 89.0386 86.9875 88.8144C86.9749 88.8087 86.9626 88.8031 86.9505 88.7975C86.7839 88.7218 86.6037 88.5913 86.4508 88.4672C86.2865 88.3338 86.1102 88.1719 85.9465 88.0012C85.7844 87.8323 85.6226 87.6421 85.4956 87.4516C85.3861 87.2874 85.2336 87.024 85.2227 86.7306C85.204 86.2235 85.3945 85.7917 85.6768 85.4467C85.9102 85.1614 86.2844 84.7113 86.7148 84.3309C87.1155 83.9768 87.7004 83.5578 88.3522 83.5578C88.5159 83.5578 88.665 83.6206 88.7765 83.7235ZM88.9115 84.465C88.8085 84.6695 88.5967 84.8097 88.3522 84.8097C88.1987 84.8097 87.9209 84.9357 87.5439 85.2689C87.1966 85.5759 86.8781 85.9554 86.6457 86.2394C86.5268 86.3847 86.4771 86.5163 86.4736 86.6477C86.481 86.6637 86.4988 86.6995 86.5374 86.7573C86.6102 86.8666 86.7193 86.9984 86.85 87.1346C86.979 87.2691 87.1172 87.3957 87.2398 87.4952C87.301 87.5448 87.3547 87.5849 87.3985 87.6146C87.4203 87.6294 87.4378 87.6404 87.451 87.6481C87.4631 87.6552 87.4689 87.658 87.4688 87.658C87.4688 87.658 87.4687 87.6579 87.4685 87.6578C88.0487 87.9215 88.3314 88.0003 88.5988 87.8665C88.8756 87.7281 89.1947 87.3714 89.5085 86.848C89.8086 86.3474 90.0507 85.7857 90.2112 85.3627C90.2293 85.315 90.2422 85.2776 90.2515 85.2484C90.223 85.2254 90.1844 85.1961 90.1319 85.1582C90.0585 85.1052 89.979 85.0433 89.9077 84.9879C89.8888 84.9731 89.8704 84.9588 89.8528 84.9452C89.7624 84.8752 89.6804 84.8136 89.6009 84.7609C89.521 84.7079 89.4565 84.6727 89.4052 84.6516C89.3567 84.6317 89.3356 84.6309 89.3356 84.6308C89.3356 84.6308 89.3357 84.6308 89.3358 84.6308C89.1721 84.6308 89.023 84.568 88.9115 84.465Z" fill="white"/>
<path fill-rule="evenodd" clip-rule="evenodd" d="M107.683 86.7876C107.874 86.4999 108.263 86.4222 108.551 86.614C108.57 86.6267 108.604 86.6446 108.679 86.6726C108.692 86.6774 108.714 86.685 108.74 86.6945C108.805 86.7177 108.9 86.7515 108.965 86.7782C109.206 86.8768 109.547 87.064 109.72 87.5008C110.055 88.35 109.918 89.3352 109.752 90.0363C109.58 90.7601 109.122 91.5342 108.49 92.0277C107.833 92.541 106.913 92.7897 105.993 92.2236C105.273 91.7806 104.843 91.1497 104.748 90.4192C104.655 89.7086 104.89 88.9943 105.311 88.3735C105.673 87.8383 106.085 87.4631 106.597 87.2351C106.915 87.0937 107.249 87.0193 107.596 86.9838C107.613 86.9157 107.642 86.8493 107.683 86.7876ZM108.594 88.0715C108.733 88.5329 108.677 89.1432 108.533 89.7478C108.422 90.2189 108.108 90.7374 107.72 91.0411C107.356 91.325 107.007 91.3781 106.649 91.1574C106.206 90.885 106.029 90.5648 105.989 90.2572C105.946 89.9297 106.047 89.5187 106.347 89.0757C106.61 88.6876 106.854 88.4914 107.106 88.3789C107.372 88.2607 107.707 88.2079 108.204 88.2079C108.351 88.2079 108.487 88.1569 108.594 88.0715Z" fill="white"/>
<path fill-rule="evenodd" clip-rule="evenodd" d="M105.777 74.4807C106.008 74.5621 106.161 74.7293 106.255 74.9012C106.419 75.2019 106.624 75.4522 106.863 75.7449C106.975 75.8813 107.094 76.0268 107.22 76.1908C107.516 76.5756 107.831 76.9353 108.162 77.3123C108.216 77.3733 108.269 77.4348 108.324 77.4968C108.707 77.9356 109.105 78.4004 109.464 78.9178C109.804 79.4078 110.064 79.9362 110.296 80.4355C110.347 80.5475 110.398 80.6572 110.447 80.7651C110.624 81.1523 110.79 81.5147 110.983 81.8637C110.986 81.869 110.991 81.8782 110.998 81.8908C111.044 81.9707 111.168 82.1873 111.264 82.4024C111.319 82.5252 111.382 82.684 111.415 82.8436C111.432 82.923 111.447 83.0333 111.435 83.1551C111.424 83.2769 111.378 83.4644 111.22 83.6222C110.991 83.8517 110.69 83.8602 110.581 83.8602C110.431 83.8601 110.28 83.8347 110.16 83.8093C109.965 83.7678 109.756 83.7024 109.664 83.6737C109.645 83.6679 109.632 83.6636 109.624 83.6613C108.932 83.4595 108.26 83.2482 107.597 83.0398C106.01 82.5408 104.473 82.0577 102.836 81.7585C102.327 81.6655 101.829 81.5666 101.337 81.4687C100.476 81.2973 99.6309 81.1292 98.768 81.0019C98.517 80.9648 98.2553 80.9146 98.0118 80.8678C97.888 80.8441 97.7689 80.8212 97.6583 80.8015C97.3095 80.7391 96.9888 80.6956 96.6685 80.6956C96.3228 80.6956 96.0425 80.4153 96.0425 80.0696C96.0425 79.7239 96.3228 79.4437 96.6685 79.4437C96.813 79.4437 96.9547 79.4503 97.0934 79.4616C96.7919 79.3037 96.6712 78.9328 96.824 78.6272C96.9018 78.4715 97.0168 78.37 97.1015 78.3088C97.1897 78.245 97.2828 78.198 97.3638 78.1631C97.525 78.0935 97.7061 78.0429 97.8648 78.0052C98.0279 77.9664 98.193 77.9352 98.3296 77.9105C98.3675 77.9036 98.402 77.8974 98.4333 77.8918C98.5243 77.8755 98.5886 77.864 98.6342 77.8539C99.2522 77.7166 99.9268 77.4064 100.606 77.094C100.681 77.0598 100.755 77.0255 100.83 76.9915C101.481 76.6937 102.105 76.3095 102.759 75.8959C102.825 75.8539 102.892 75.8115 102.959 75.7689C103.541 75.3992 104.151 75.0117 104.788 74.684C104.811 74.6721 104.824 74.6649 104.842 74.654C104.861 74.6432 104.886 74.6286 104.934 74.6021C104.999 74.5662 105.106 74.5096 105.231 74.4731C105.358 74.436 105.558 74.4036 105.777 74.4807ZM97.5397 79.5134C97.6552 79.5304 97.7682 79.5493 97.8786 79.5691C98.024 79.595 98.1589 79.621 98.2892 79.6462C98.513 79.6893 98.7234 79.7298 98.9508 79.7634C99.8397 79.8945 100.745 80.0743 101.63 80.2502C102.115 80.3465 102.594 80.4416 103.061 80.5269C104.779 80.8409 106.432 81.3603 108.049 81.8688C108.659 82.0604 109.263 82.2504 109.864 82.4272C109.656 82.0451 109.472 81.6424 109.298 81.263C109.251 81.1609 109.205 81.0605 109.16 80.9627C108.933 80.4736 108.71 80.0279 108.435 79.6317C108.119 79.1763 107.762 78.7567 107.381 78.3208C107.329 78.2617 107.277 78.202 107.224 78.142C106.895 77.7667 106.55 77.3732 106.227 76.9534C106.153 76.8564 106.065 76.7491 105.971 76.6337C105.77 76.3878 105.539 76.1052 105.342 75.8072C104.765 76.1051 104.21 76.4575 103.627 76.8275C103.561 76.8693 103.495 76.9114 103.428 76.9536C102.776 77.3666 102.088 77.793 101.35 78.1301C101.277 78.1635 101.202 78.1983 101.124 78.2341C100.467 78.5371 99.664 78.9075 98.9058 79.076C98.8322 79.0924 98.7301 79.1106 98.6313 79.1282C98.6047 79.133 98.5783 79.1377 98.5527 79.1424C98.4207 79.1663 98.2831 79.1925 98.1546 79.2231C98.023 79.2544 97.9243 79.2849 97.8617 79.3118C97.7766 79.4124 97.6632 79.4816 97.5397 79.5134ZM110.19 83.1002C110.19 83.1002 110.19 83.0992 110.189 83.0975L110.19 83.1002Z" fill="white"/>
<path fill-rule="evenodd" clip-rule="evenodd" d="M90.785 58.4799C91.3977 57.991 92.1879 57.5523 93.1113 57.6326C95.1461 57.8095 96.8776 58.7169 98.4638 59.6783C99.4655 60.2853 100.446 60.9045 101.423 61.5558C102.124 62.0236 102.683 62.6001 103.207 63.141C103.34 63.2776 103.47 63.412 103.6 63.5417C103.655 63.597 103.714 63.654 103.775 63.7133C104.182 64.1092 104.692 64.6039 104.945 65.3211C105.118 65.8125 105.379 66.3748 105.621 66.8869C106.196 68.1059 106.387 69.4256 106.441 70.7089C106.475 71.5097 106.455 72.3471 106.437 73.1421C106.426 73.5921 106.416 74.0285 106.416 74.4371C106.416 74.7828 106.136 75.063 105.79 75.063C105.444 75.063 105.164 74.7828 105.164 74.4371C105.164 73.9643 105.175 73.5009 105.186 73.0408C105.205 72.2817 105.223 71.5314 105.19 70.7619C105.139 69.5549 104.962 68.4246 104.489 67.421C104.251 66.9175 103.962 66.2988 103.764 65.7377C103.615 65.3156 103.335 65.0397 102.919 64.6291C102.854 64.5653 102.786 64.4983 102.714 64.427C102.555 64.2674 102.405 64.1135 102.262 63.9654C101.75 63.4388 101.308 62.984 100.728 62.5975C99.7684 61.9575 98.8035 61.348 97.815 60.7489C96.257 59.8047 94.7341 59.0304 93.0029 58.8798C92.5525 58.8406 92.0812 59.0472 91.5658 59.4585C91.1437 59.7953 90.7652 60.2074 90.3983 60.6068C90.3155 60.6969 90.2333 60.7864 90.1514 60.8742C90.0051 61.0309 89.9137 61.3388 89.9037 61.8551C89.899 62.0969 89.912 62.3491 89.9278 62.6076C89.9298 62.6398 89.9318 62.6724 89.9339 62.7053C89.9476 62.9246 89.962 63.1552 89.962 63.3584C89.962 63.4628 89.9554 63.5855 89.9497 63.6912C89.9478 63.726 89.946 63.759 89.9446 63.7888C89.9381 63.9269 89.9363 64.042 89.9449 64.1412C89.9537 64.2412 89.9706 64.2918 89.9807 64.3123C90.2848 64.4691 90.4071 64.8417 90.2536 65.1486C90.099 65.4578 89.723 65.5831 89.4138 65.4285C88.8588 65.151 88.7288 64.6067 88.6977 64.2499C88.6815 64.0635 88.687 63.8792 88.6941 63.7297C88.6966 63.6773 88.6991 63.631 88.7013 63.5891C88.7063 63.4974 88.7101 63.4267 88.7101 63.3584C88.7101 63.1974 88.6985 63.0109 88.6846 62.7861C88.6825 62.7529 88.6804 62.7189 88.6782 62.684C88.6624 62.424 88.6463 62.1277 88.652 61.8309C88.6628 61.27 88.7503 60.5405 89.2361 60.02C89.304 59.9473 89.3762 59.8685 89.4523 59.7855C89.8197 59.3847 90.279 58.8836 90.785 58.4799Z" fill="white"/>
<path fill-rule="evenodd" clip-rule="evenodd" d="M116.401 67.7287C115.063 67.7278 113.777 67.727 112.502 67.9019C111.573 68.0292 110.707 68.1661 109.865 68.4346C109.308 68.6118 108.903 68.8911 108.355 69.269C108.297 69.3091 108.237 69.3503 108.175 69.3927C107.225 70.0442 106.686 70.9599 106.209 72.1115C106.162 72.225 106.139 72.3699 106.134 72.5737C106.132 72.6747 106.135 72.7801 106.139 72.899C106.139 72.9135 106.14 72.9283 106.14 72.9433C106.144 73.0463 106.147 73.1606 106.147 73.2732C106.147 73.6189 105.867 73.8991 105.521 73.8991C105.176 73.8991 104.895 73.6189 104.895 73.2732C104.895 73.1825 104.892 73.0902 104.889 72.9852C104.888 72.97 104.888 72.9545 104.887 72.9387C104.884 72.8191 104.88 72.6848 104.883 72.548C104.888 72.2762 104.92 71.9534 105.052 71.6328C105.563 70.3974 106.221 69.2151 107.467 68.3602C107.529 68.3183 107.59 68.2758 107.652 68.2331C108.182 67.8653 108.74 67.4787 109.485 67.2417C110.439 66.9378 111.398 66.7896 112.332 66.6615C113.696 66.4745 115.064 66.4756 116.384 66.4767C116.484 66.4768 116.585 66.4769 116.684 66.4769C117.568 66.4769 118.331 66.7495 118.891 67.3008C119.446 67.847 119.738 68.6039 119.807 69.4566C119.867 70.1929 119.682 70.8863 119.455 71.4977C119.341 71.8049 119.212 72.1049 119.09 72.3847L119.073 72.424C118.956 72.6941 118.848 72.9436 118.755 73.1871C118.707 73.315 118.657 73.4532 118.604 73.5985C118.354 74.2907 118.047 75.1429 117.558 75.7949C117.35 76.0715 116.958 76.1275 116.681 75.9201C116.405 75.7127 116.349 75.3203 116.556 75.0438C116.922 74.5567 117.15 73.9289 117.4 73.2432C117.46 73.0795 117.52 72.9124 117.585 72.7431C117.688 72.471 117.807 72.1963 117.921 71.9338C117.928 71.9179 117.935 71.9019 117.942 71.886C118.065 71.6038 118.181 71.3334 118.281 71.0628C118.483 70.5186 118.598 70.0272 118.559 69.5582C118.508 68.9224 118.302 68.477 118.013 68.1931C117.73 67.9142 117.304 67.7288 116.684 67.7288C116.59 67.7288 116.495 67.7288 116.401 67.7287Z" fill="white"/>
<path fill-rule="evenodd" clip-rule="evenodd" d="M83.9695 65.4053C84.3152 65.4053 84.5955 65.6855 84.5955 66.0312V67.0149C84.5955 67.3606 84.3152 67.6409 83.9695 67.6409C83.6238 67.6409 83.3436 67.3606 83.3436 67.0149V66.0312C83.3436 65.6855 83.6238 65.4053 83.9695 65.4053Z" fill="white"/>
<path fill-rule="evenodd" clip-rule="evenodd" d="M84.1493 71.7539C84.495 71.7539 84.7752 72.0342 84.7752 72.3799V72.6481C84.7752 72.9939 84.495 73.2741 84.1493 73.2741C83.8036 73.2741 83.5233 72.9939 83.5233 72.6481V72.3799C83.5233 72.0342 83.8036 71.7539 84.1493 71.7539Z" fill="white"/>
<path fill-rule="evenodd" clip-rule="evenodd" d="M91.2133 67.8193C91.559 67.8193 91.8393 68.0996 91.8393 68.4453V70.1444C91.8393 70.4901 91.559 70.7703 91.2133 70.7703C90.8676 70.7703 90.5874 70.4901 90.5874 70.1444V68.4453C90.5874 68.0996 90.8676 67.8193 91.2133 67.8193Z" fill="white"/>
<path fill-rule="evenodd" clip-rule="evenodd" d="M82.5382 87.7264C82.5204 87.3967 82.2474 87.1348 81.9132 87.1348C81.5675 87.1348 81.2872 87.415 81.2872 87.7607C81.2872 88.081 81.4316 88.3432 81.5676 88.5243C81.7078 88.7108 81.8845 88.8717 82.0499 89.0024C82.3814 89.2643 82.7573 89.474 82.9541 89.5817C82.9962 89.6047 83.0397 89.6275 83.0843 89.6507C83.1838 89.7027 83.2886 89.7574 83.3962 89.8253C83.4337 89.849 83.4624 89.8688 83.4835 89.8845C83.5791 90.108 83.8009 90.2646 84.0594 90.2646C84.4051 90.2646 84.6853 89.9844 84.6853 89.6386C84.6853 89.3105 84.4726 89.0935 84.3972 89.0202C84.2912 88.9173 84.1666 88.8312 84.0645 88.7667C83.9081 88.668 83.7175 88.5685 83.6153 88.5152C83.5883 88.5011 83.5674 88.4902 83.555 88.4834C83.3628 88.3782 83.068 88.2113 82.8261 88.0201C82.7047 87.9242 82.619 87.8394 82.5685 87.7722C82.5523 87.7506 82.5431 87.7355 82.5382 87.7264Z" fill="white"/>
<path fill-rule="evenodd" clip-rule="evenodd" d="M110.731 93.2934C110.886 93.6026 110.761 93.9786 110.452 94.1332C110.193 94.2625 109.933 94.3942 109.671 94.5267C108.78 94.9784 107.869 95.44 106.934 95.8465C106.617 95.9843 106.248 95.8391 106.11 95.522C105.972 95.205 106.117 94.8362 106.434 94.6984C107.332 94.308 108.199 93.869 109.085 93.4205C109.351 93.2853 109.62 93.1493 109.892 93.0135C110.201 92.8589 110.577 92.9842 110.731 93.2934Z" fill="white"/>
<path fill-rule="evenodd" clip-rule="evenodd" d="M162.675 2.11399C162.962 2.30575 163.04 2.69439 162.848 2.98204C162.137 4.04831 161.6 5.23891 161.05 6.48851C161.018 6.56171 160.986 6.63513 160.954 6.70874C160.442 7.87553 159.909 9.08952 159.218 10.2099C158.598 11.2171 157.872 12.134 157.165 13.0262C156.795 13.4937 156.43 13.9545 156.089 14.4179C155.501 15.2162 155.033 16.0041 154.538 16.8377C154.315 17.214 154.086 17.5996 153.838 17.9997C152.09 20.8208 149.629 23.2806 147.345 25.5627C147.257 25.6508 147.169 25.7386 147.081 25.8262C145.24 27.6679 143.387 29.5564 141.695 31.5088C140.28 33.1413 138.699 34.7182 137.176 36.237C136.965 36.4472 136.755 36.6564 136.547 36.8644C134.39 39.022 132.224 41.0564 129.877 43.0273C127.604 44.9354 125.42 46.9436 123.302 49.0269C121.965 50.3412 120.561 51.5714 119.169 52.7901C118.504 53.3724 117.842 53.9521 117.193 54.537C116.936 54.7683 116.54 54.7474 116.309 54.4905C116.077 54.2335 116.098 53.8377 116.355 53.6064C117.032 52.997 117.708 52.405 118.38 51.8169C119.756 50.6122 121.113 49.4237 122.424 48.1344C124.562 46.0314 126.771 44.0006 129.072 42.0685C131.384 40.127 133.523 38.1186 135.662 35.9792C135.872 35.7694 136.082 35.5594 136.293 35.349C137.82 33.8267 139.366 32.2843 140.749 30.6889C142.472 28.7005 144.352 26.7853 146.196 24.941C146.271 24.8659 146.346 24.7907 146.422 24.7155C148.735 22.403 151.104 20.0349 152.774 17.3402C152.995 16.9839 153.21 16.6222 153.426 16.2579C153.936 15.3988 154.455 14.5253 155.081 13.6752C155.479 13.1352 155.87 12.6418 156.252 12.1614C156.925 11.3127 157.566 10.5049 158.152 9.55319C158.796 8.50946 159.296 7.37003 159.817 6.18392C159.846 6.11765 159.875 6.05123 159.904 5.98467C160.45 4.74307 161.027 3.45687 161.807 2.2876C161.998 1.99995 162.387 1.92222 162.675 2.11399Z" fill="white"/>
<path fill-rule="evenodd" clip-rule="evenodd" d="M139.581 54.6604C137.418 54.7629 135.24 54.8662 133.079 54.8662H119.127C118.782 54.8662 118.501 54.5859 118.501 54.2402C118.501 53.8945 118.782 53.6143 119.127 53.6143H133.079C135.21 53.6143 137.339 53.5133 139.486 53.4114C140.452 53.3656 141.422 53.3196 142.397 53.2825C145.525 53.1636 148.682 53.1386 151.833 53.5255C152.92 53.659 154.013 53.7846 155.11 53.9105C157.252 54.1563 159.404 54.4034 161.54 54.7134C165.056 55.2238 168.5 56.2501 171.836 57.2451C174.136 57.9311 176.603 58.3208 179.057 58.7083C179.686 58.8078 180.315 58.907 180.94 59.0111C180.978 59.0176 181.024 59.0249 181.077 59.0332C181.438 59.0906 182.099 59.1958 182.695 59.3879C183.035 59.4974 183.404 59.6502 183.7 59.8718C183.998 60.0953 184.302 60.4539 184.302 60.964C184.302 61.3097 184.021 61.59 183.676 61.59C183.333 61.59 183.054 61.314 183.05 60.9719C183.042 60.9577 183.018 60.9249 182.949 60.8737C182.816 60.7736 182.599 60.6721 182.311 60.5795C181.816 60.4199 181.262 60.3311 180.892 60.2717C180.835 60.2625 180.782 60.254 180.734 60.246C180.134 60.146 179.522 60.0495 178.903 59.9519C176.441 59.5634 173.867 59.1572 171.478 58.4448C168.127 57.4454 164.77 56.4474 161.36 55.9523C159.242 55.6449 157.123 55.4017 154.994 55.1574C153.893 55.031 152.788 54.9042 151.68 54.7681C148.631 54.3936 145.554 54.4153 142.445 54.5335C141.495 54.5696 140.539 54.6149 139.581 54.6604ZM183.053 60.98C183.052 60.98 183.051 60.9777 183.05 60.9732C183.053 60.9778 183.053 60.9801 183.053 60.98Z" fill="white"/>
<path fill-rule="evenodd" clip-rule="evenodd" d="M142.939 40.4622C143.273 40.4833 143.576 40.5026 143.875 40.5026H150.58C151.713 40.5026 152.858 40.4903 154.009 40.478C158.496 40.43 163.089 40.3809 167.557 41.0511C168.991 41.2663 170.415 41.4168 171.85 41.5687C172.312 41.6175 172.775 41.6665 173.24 41.7178C175.14 41.9274 177.059 42.1746 178.986 42.6098C180.827 43.0254 182.707 43.3531 184.576 43.5311C184.727 43.5455 184.886 43.5593 185.049 43.5736C185.601 43.6216 186.213 43.6748 186.806 43.7735C187.581 43.9026 188.39 44.1181 189.097 44.542C190.156 45.1773 190.974 46.1946 191.471 47.2607C191.524 47.374 191.579 47.4908 191.635 47.6105C191.96 48.3011 192.331 49.0914 192.643 49.8959C193.008 50.837 193.314 51.8481 193.369 52.8034C193.425 53.7904 193.213 54.6073 192.909 55.3606C192.759 55.7321 192.586 56.0918 192.414 56.4418C192.394 56.4837 192.373 56.5254 192.353 56.567C192.2 56.8785 192.049 57.1849 191.906 57.5089C191.858 57.6184 191.81 57.7333 191.76 57.8519C191.457 58.5675 191.099 59.4171 190.384 60.0221C190.255 60.1313 190.114 60.2537 189.966 60.3829C189.636 60.6706 189.267 60.9922 188.896 61.2793C188.353 61.6998 187.73 62.11 187.066 62.3176C186.659 62.4447 186.238 62.4651 185.87 62.4614C185.695 62.4597 185.52 62.4521 185.359 62.4451L185.33 62.4439C185.157 62.4364 185.001 62.4301 184.853 62.4301C184.507 62.4301 184.227 62.1499 184.227 61.8041C184.227 61.4584 184.507 61.1782 184.853 61.1782C185.032 61.1782 185.214 61.1858 185.384 61.1931L185.407 61.1941C185.573 61.2013 185.729 61.208 185.883 61.2095C186.208 61.2128 186.473 61.1911 186.692 61.1226C187.142 60.9822 187.624 60.6814 188.13 60.2895C188.472 60.0243 188.791 59.7463 189.106 59.4711C189.263 59.3348 189.418 59.1993 189.575 59.0664C190.044 58.6696 190.274 58.1335 190.585 57.4089C190.641 57.2798 190.699 57.1448 190.761 57.0036C190.915 56.6545 191.077 56.324 191.229 56.0144C191.25 55.9729 191.27 55.9317 191.29 55.8909C191.461 55.5409 191.617 55.2175 191.748 54.8925C192.006 54.2531 192.162 53.6247 192.119 52.8748C192.075 52.1139 191.824 51.2464 191.476 50.3489C191.181 49.5882 190.83 48.8422 190.506 48.1502C190.448 48.0284 190.392 47.9084 190.337 47.7902C189.925 46.9068 189.26 46.0998 188.453 45.6155C187.939 45.3074 187.306 45.126 186.6 45.0085C186.06 44.9186 185.517 44.8712 184.974 44.8238C184.802 44.8088 184.629 44.7938 184.457 44.7774C182.525 44.5933 180.59 44.2555 178.71 43.831C176.854 43.4118 174.992 43.1706 173.102 42.9621C172.65 42.9122 172.195 42.8641 171.738 42.8158C170.296 42.6633 168.835 42.5088 167.371 42.2892C163.012 41.6353 158.548 41.6825 154.073 41.7299C152.909 41.7422 151.744 41.7545 150.58 41.7545H143.875C143.549 41.7545 143.164 41.7308 142.792 41.7078C142.572 41.6942 142.357 41.6809 142.16 41.6729C141.582 41.6494 141.076 41.6636 140.674 41.7707C139.649 42.0442 138.627 42.2588 137.506 42.2588C137.382 42.2588 137.235 42.2678 137.051 42.2792L137.039 42.2799C136.858 42.2911 136.649 42.3037 136.44 42.3043C136.048 42.3055 135.513 42.2702 135.086 41.9855C134.798 41.7938 134.72 41.4051 134.912 41.1175C135.104 40.8298 135.492 40.7521 135.78 40.9439C135.872 41.0048 136.071 41.0535 136.436 41.0524C136.604 41.0519 136.778 41.0417 136.962 41.0304C136.972 41.0297 136.982 41.0291 136.992 41.0285C137.159 41.0181 137.342 41.0068 137.506 41.0068C138.466 41.0068 139.365 40.8242 140.352 40.5611C140.947 40.4023 141.613 40.3977 142.211 40.422C142.472 40.4327 142.713 40.4479 142.939 40.4622Z" fill="white"/>
<path fill-rule="evenodd" clip-rule="evenodd" d="M165.963 15.7487C166.208 15.9142 166.434 16.1987 166.434 16.605C166.434 16.8825 166.37 17.1589 166.315 17.3731C166.296 17.448 166.278 17.515 166.262 17.5766C166.225 17.7163 166.195 17.828 166.175 17.9403C166.149 18.0841 166.106 18.2422 166.068 18.3786C166.166 18.3771 166.262 18.3749 166.347 18.3727C166.376 18.372 166.404 18.3713 166.431 18.3706C166.521 18.3682 166.602 18.3661 166.643 18.3661C167.098 18.3661 167.65 18.3744 168.179 18.5106C168.344 18.5528 168.51 18.6345 168.645 18.7787C168.779 18.9221 168.84 19.0833 168.869 19.2146C168.895 19.3383 168.896 19.454 168.896 19.5278C168.895 19.5921 168.894 19.6158 168.893 19.6351C168.892 19.6535 168.891 19.6679 168.891 19.7097C168.891 20.5563 168.657 21.3071 168.268 22.0157C168.117 22.2916 167.926 22.5289 167.771 22.7202L167.759 22.7352C167.752 22.7441 167.745 22.753 167.738 22.7617C167.885 22.7963 168.052 22.8506 168.213 22.944C168.684 23.2173 168.861 23.6574 168.965 23.9142C168.981 23.9533 168.995 23.9882 169.008 24.0176C169.372 24.8299 169.532 25.4943 169.523 26.4168C169.52 26.683 169.482 26.942 169.374 27.1745C169.259 27.4223 169.082 27.6013 168.87 27.7225C168.675 27.8342 168.465 27.8873 168.291 27.9206C168.164 27.9451 168.018 27.965 167.883 27.9835C167.838 27.9896 167.794 27.9956 167.753 28.0015C167.545 28.0312 167.33 28.0437 167.122 28.048C167.143 28.1266 167.162 28.2046 167.178 28.2723C167.185 28.2998 167.191 28.3256 167.197 28.3491C167.228 28.4738 167.249 28.544 167.266 28.585C167.282 28.6221 167.304 28.6673 167.339 28.7383C167.345 28.7504 167.351 28.7632 167.357 28.7768C167.399 28.861 167.45 28.9675 167.496 29.0803C167.571 29.2657 167.706 29.6344 167.6 30.0071C167.55 30.1801 167.446 30.2911 167.385 30.3471C167.318 30.4074 167.25 30.4496 167.2 30.4773C167.099 30.5327 166.991 30.5737 166.911 30.6017C166.834 30.6284 166.756 30.6522 166.699 30.6697L166.682 30.6747C166.627 30.6917 166.608 30.6982 166.608 30.6978C166.608 30.6976 166.612 30.6958 166.619 30.6929C166.131 30.9164 165.617 30.983 165.153 31.0012C164.872 31.0123 164.557 31.005 164.276 30.9985C164.123 30.9949 163.98 30.9916 163.858 30.9916H159.684C158.647 30.9916 157.628 30.8939 156.634 30.7987C156.508 30.7866 156.381 30.7745 156.256 30.7626C154.235 30.5722 152.221 30.5001 150.183 30.5001C150.112 30.5001 149.894 30.4946 149.587 30.4867C149.007 30.4718 148.106 30.4487 147.272 30.4397C146.615 30.4326 145.981 30.4336 145.513 30.4515C145.276 30.4605 145.099 30.4734 144.988 30.4885C144.987 30.4887 144.986 30.4888 144.984 30.489C144.871 30.5533 144.737 30.5829 144.598 30.5655C144.255 30.5226 144.012 30.2098 144.054 29.8668C144.089 29.5939 144.273 29.4502 144.341 29.4039C144.422 29.3492 144.5 29.3207 144.544 29.3065C144.637 29.2762 144.737 29.2592 144.819 29.248C144.992 29.2245 145.218 29.2099 145.465 29.2005C145.965 29.1813 146.624 29.1807 147.286 29.1878C148.174 29.1975 149.04 29.2202 149.597 29.2349C149.894 29.2427 150.104 29.2482 150.183 29.2482C152.25 29.2482 154.304 29.3213 156.373 29.5162C156.501 29.5282 156.627 29.5404 156.754 29.5524C157.754 29.6481 158.711 29.7397 159.684 29.7397H163.858C164.046 29.7397 164.216 29.744 164.378 29.7481C164.623 29.7544 164.851 29.7602 165.104 29.7503C165.495 29.7349 165.823 29.6807 166.097 29.5548C166.144 29.5331 166.192 29.517 166.219 29.5082C166.247 29.4988 166.278 29.4893 166.306 29.4807C166.284 29.4321 166.259 29.3811 166.233 29.3264C166.228 29.3162 166.222 29.3055 166.217 29.2944C166.184 29.2269 166.143 29.1447 166.113 29.0728C166.053 28.9302 166.012 28.7716 165.982 28.6501C165.973 28.6141 165.965 28.5802 165.957 28.5478C165.934 28.4552 165.915 28.3747 165.891 28.2928C165.859 28.1848 165.831 28.1153 165.807 28.0727C165.803 28.0655 165.799 28.0601 165.797 28.0562C165.758 28.0334 165.71 28.0032 165.664 27.9648C165.629 27.9353 165.494 27.8223 165.439 27.6212C165.406 27.5002 165.404 27.3555 165.462 27.212C165.516 27.0769 165.604 26.9897 165.67 26.9393C165.787 26.8502 165.906 26.8227 165.943 26.8144C166.036 26.7934 166.129 26.7915 166.167 26.7909C166.201 26.7903 166.25 26.7907 166.271 26.7909C166.275 26.7909 166.279 26.791 166.28 26.791C166.414 26.791 166.539 26.7929 166.658 26.7947C166.995 26.7998 167.282 26.8041 167.576 26.7622C167.638 26.7533 167.694 26.7457 167.745 26.7387C167.867 26.7219 167.963 26.7088 168.056 26.6911C168.168 26.6696 168.22 26.6502 168.242 26.6392C168.251 26.6153 168.27 26.5481 168.271 26.4044C168.278 25.6815 168.164 25.195 167.866 24.5288C167.84 24.4727 167.813 24.4075 167.79 24.3541C167.779 24.3279 167.769 24.3045 167.762 24.2864C167.732 24.2183 167.711 24.1733 167.69 24.1379C167.658 24.0821 167.633 24.055 167.584 24.0266C167.541 24.0013 167.468 23.9787 167.29 23.9506C167.271 23.9477 167.25 23.9446 167.228 23.9413C167.079 23.9192 166.848 23.885 166.638 23.805L166.634 23.8034C166.58 23.7829 166.464 23.7386 166.365 23.666C166.307 23.6237 166.197 23.5312 166.133 23.3708C166.059 23.1887 166.082 23.0184 166.124 22.9018C166.158 22.8043 166.209 22.7348 166.226 22.711C166.244 22.687 166.264 22.6614 166.273 22.6512C166.274 22.6499 166.275 22.6489 166.275 22.6481C166.294 22.6246 166.3 22.6158 166.306 22.6063C166.448 22.3653 166.623 22.1484 166.767 21.9714C166.777 21.9585 166.787 21.9458 166.798 21.9333C166.957 21.7355 167.08 21.5785 167.17 21.4134C167.478 20.8539 167.639 20.3086 167.639 19.7097C167.639 19.6981 167.639 19.6867 167.64 19.6756C167.338 19.626 167.007 19.618 166.643 19.618C166.619 19.618 166.567 19.6194 166.486 19.6215C166.455 19.6223 166.419 19.6232 166.379 19.6242C166.246 19.6276 166.08 19.6313 165.919 19.6322C165.761 19.6332 165.593 19.6316 165.459 19.6228C165.396 19.6187 165.314 19.6115 165.237 19.5952C165.204 19.5882 165.129 19.5711 165.047 19.53C165.013 19.5125 164.691 19.3503 164.691 18.9569C164.691 18.6886 164.756 18.425 164.81 18.229C164.827 18.1645 164.843 18.1069 164.858 18.0543C164.896 17.9214 164.924 17.8203 164.942 17.7191C164.972 17.5514 165.023 17.3621 165.065 17.2037C165.079 17.1529 165.092 17.1053 165.103 17.0626C165.135 16.9369 165.157 16.8342 165.17 16.7489C165.136 16.7386 165.093 16.7277 165.039 16.7173C164.782 16.6683 164.483 16.6689 164.277 16.6692C164.26 16.6693 164.244 16.6693 164.228 16.6693C163.531 16.6693 162.983 16.9273 162.227 17.3053C161.917 17.4599 161.541 17.3346 161.387 17.0253C161.232 16.7161 161.357 16.3401 161.667 16.1855L161.678 16.1799C162.41 15.8138 163.203 15.4174 164.228 15.4174C164.243 15.4174 164.259 15.4173 164.277 15.4172C164.472 15.4163 164.891 15.4145 165.274 15.4876C165.481 15.527 165.741 15.5989 165.963 15.7487ZM166.387 29.7193C166.387 29.7194 166.387 29.7186 166.387 29.7172L166.387 29.7193Z" fill="white"/>
<path fill-rule="evenodd" clip-rule="evenodd" d="M159.144 14.2754C159.393 14.2816 159.768 14.3206 160.084 14.5665C160.283 14.7209 160.471 14.8857 160.644 15.0368C160.657 15.0485 160.67 15.0601 160.683 15.0716C160.872 15.2367 161.044 15.3855 161.222 15.5194C161.297 15.5751 161.379 15.6427 161.455 15.7041C161.469 15.7156 161.483 15.7268 161.496 15.7378C161.588 15.8124 161.675 15.8825 161.762 15.9452C161.85 16.0084 161.925 16.0555 161.988 16.0869C162.047 16.1166 162.076 16.1221 162.079 16.1227C162.079 16.1228 162.079 16.1228 162.079 16.1227C162.423 16.1571 162.674 16.4639 162.64 16.8079C162.605 17.1519 162.299 17.4029 161.955 17.3685C161.576 17.3306 161.241 17.1132 161.029 16.96C160.911 16.8746 160.799 16.7849 160.705 16.7085C160.689 16.6948 160.672 16.6817 160.657 16.6691C160.581 16.6073 160.523 16.5597 160.471 16.5209C160.25 16.3552 160.046 16.1771 159.859 16.0137C159.847 16.0037 159.836 15.9938 159.825 15.9839C159.646 15.8276 159.484 15.6857 159.316 15.5547C159.317 15.5555 159.317 15.5559 159.317 15.556C159.317 15.5564 159.272 15.5309 159.113 15.5269C159.033 15.5249 158.945 15.5284 158.84 15.5338C158.827 15.5344 158.815 15.5351 158.801 15.5358C158.712 15.5405 158.606 15.5462 158.507 15.5462C158.161 15.5462 157.881 15.2659 157.881 14.9202C157.881 14.5745 158.161 14.2942 158.507 14.2942C158.57 14.2942 158.64 14.2906 158.733 14.2857C158.747 14.285 158.761 14.2843 158.775 14.2835C158.881 14.2781 159.011 14.272 159.144 14.2754Z" fill="white"/>
<path fill-rule="evenodd" clip-rule="evenodd" d="M68.1017 40.9133C68.3694 40.7596 68.7177 40.6074 69.1266 40.6074C69.5008 40.6074 69.8578 40.642 70.19 40.6741C70.2659 40.6815 70.3405 40.6887 70.4138 40.6954C70.4798 40.7014 70.5762 40.6996 70.7203 40.6904C70.7616 40.6878 70.8099 40.6842 70.8618 40.6804C70.9656 40.6729 71.0839 40.6642 71.1904 40.6594C71.4918 40.6456 71.9788 40.6387 72.3727 40.8811C72.4525 40.9302 72.5355 40.9797 72.6208 41.0307C73.1317 41.3356 73.7254 41.69 74.2023 42.2906C74.8178 43.0657 75.2114 43.745 75.5867 44.6564C75.6755 44.8721 75.7488 45.1051 75.8124 45.3073C75.8265 45.3523 75.8402 45.3957 75.8535 45.4372C75.932 45.6824 76.0027 45.8797 76.0914 46.0444C76.3814 46.583 76.4046 47.2806 76.3888 47.8314C76.3809 48.1079 76.361 48.384 76.3433 48.6287L76.3404 48.6678C76.3215 48.931 76.3068 49.1463 76.3068 49.3195C76.3068 50.4167 75.6887 51.1299 75.1672 51.7317C75.1479 51.754 75.1288 51.7761 75.1098 51.7981C74.6425 52.3387 74.23 52.915 73.797 53.52C73.5653 53.8438 73.3277 54.1757 73.0727 54.5148C72.3657 55.455 71.5607 56.3937 70.5024 57.0816C69.998 57.4095 69.5225 57.7824 69.021 58.1756L68.9816 58.2066C68.4733 58.6051 67.9376 59.0233 67.3571 59.3909C67.3327 59.4064 67.3071 59.4227 67.2803 59.4397C67.0727 59.5719 66.7988 59.7463 66.5137 59.89C66.2013 60.0475 65.7952 60.2113 65.3749 60.2113C65.0292 60.2113 64.7489 59.931 64.7489 59.5853C64.7489 59.2396 65.0292 58.9594 65.3749 58.9594C65.4956 58.9594 65.6872 58.9047 65.9502 58.7721C66.1754 58.6586 66.3942 58.5195 66.6069 58.3843C66.6338 58.3672 66.6606 58.3502 66.6873 58.3333C67.2069 58.0042 67.6955 57.6241 68.2091 57.2214C68.2276 57.2069 68.2461 57.1923 68.2647 57.1778C68.7539 56.7941 69.2682 56.3907 69.8201 56.032C70.6915 55.4655 71.3907 54.6686 72.0721 53.7624C72.2884 53.4749 72.5076 53.1689 72.7312 52.8569C73.1867 52.2214 73.6601 51.5608 74.1626 50.9794C74.7442 50.3066 75.0549 49.9222 75.0549 49.3195C75.0549 49.0926 75.0736 48.8299 75.0918 48.5777L75.094 48.5462C75.1122 48.2954 75.1303 48.0441 75.1374 47.7957C75.1531 47.2464 75.1059 46.8549 74.9891 46.638C74.8413 46.3635 74.7417 46.0705 74.6612 45.8189C74.6436 45.7641 74.6271 45.7116 74.6111 45.6611C74.5486 45.463 74.4954 45.2943 74.4291 45.1331C74.0969 44.3263 73.762 43.7493 73.2219 43.0691C72.8974 42.6605 72.5188 42.4323 72.0078 42.1242C71.9152 42.0683 71.8183 42.0099 71.7166 41.9473C71.6863 41.9287 71.5657 41.8955 71.2474 41.91C71.1552 41.9142 71.0719 41.9204 70.9818 41.927C70.9253 41.9312 70.8662 41.9355 70.8004 41.9398C70.6501 41.9494 70.4705 41.9576 70.3004 41.9422C70.212 41.9341 70.1273 41.926 70.0453 41.9181C69.7185 41.8866 69.4348 41.8593 69.1266 41.8593C69.0303 41.8593 68.9056 41.8953 68.7253 41.9989C68.5949 42.0738 68.4829 42.1535 68.3509 42.2474C68.2837 42.2952 68.2113 42.3468 68.1286 42.4032C67.8036 42.6252 67.4164 42.7846 67.1015 42.9143C67.0534 42.9341 67.0069 42.9532 66.9627 42.9717C66.5903 43.1277 66.3267 43.2578 66.1435 43.4288C65.4161 44.1077 64.575 44.4699 63.8098 44.7994C63.6435 44.871 63.4808 44.9411 63.3236 45.0126C63.189 45.0737 62.984 45.159 62.7642 45.1497C62.6283 45.144 62.4825 45.1028 62.3516 45.0066C62.2309 44.9178 62.1639 44.8116 62.1292 44.7476C62.0582 44.6169 62.0436 44.5747 62.0451 44.5645C61.7739 44.3542 61.6584 44.3002 61.4875 44.3002C61.1418 44.3002 60.8615 44.02 60.8615 43.6743C60.8615 43.3286 61.1418 43.0483 61.4875 43.0483C62.1045 43.0483 62.5077 43.3382 62.821 43.582C62.9016 43.6446 62.9669 43.7107 63.0203 43.7765C63.1456 43.7211 63.2669 43.6684 63.3846 43.6173C64.1319 43.2928 64.7349 43.0309 65.2893 42.5135C65.6546 42.1726 66.1128 41.9704 66.479 41.817C66.5334 41.7942 66.5858 41.7725 66.6364 41.7515C66.9627 41.6161 67.2141 41.5117 67.4226 41.3694C67.4647 41.3406 67.5143 41.3054 67.5692 41.2664C67.7226 41.1575 67.9168 41.0196 68.1017 40.9133Z" fill="white"/>
<path fill-rule="evenodd" clip-rule="evenodd" d="M52.8305 40.6537C52.7262 40.3981 52.4603 40.2337 52.1733 40.2695C51.8303 40.3124 51.587 40.6253 51.6298 40.9683C51.6697 41.2873 51.8933 41.4975 51.9927 41.5845C52.1232 41.6987 52.277 41.7977 52.4116 41.8763C52.6227 41.9994 52.8637 42.1148 52.9949 42.1776C53.0281 42.1935 53.0542 42.2061 53.0711 42.2145C53.357 42.3575 53.6382 42.5478 53.954 42.7686C53.984 42.7897 54.0145 42.811 54.0453 42.8326C54.3257 43.0293 54.6362 43.2471 54.9617 43.4302C55.0438 43.4764 55.1266 43.522 55.2101 43.5679C55.3901 43.6671 55.5729 43.7678 55.7575 43.8791C56.0053 44.0284 56.2063 44.1681 56.3422 44.2947C56.3507 44.3141 56.3621 44.3434 56.3754 44.384C56.4103 44.4902 56.4455 44.6326 56.4771 44.7929C56.5419 45.1224 56.5755 45.4442 56.5755 45.5661C56.5755 45.9118 56.8557 46.1921 57.2014 46.1921C57.5471 46.1921 57.8274 45.9118 57.8274 45.5661C57.8274 45.3294 57.7777 44.9186 57.7054 44.5512C57.6684 44.3632 57.6216 44.1661 57.5647 43.993C57.5363 43.9065 57.502 43.8157 57.4603 43.7302C57.4222 43.6523 57.36 43.5407 57.2621 43.4428C57.0156 43.1963 56.6941 42.9818 56.4037 42.8068C56.1977 42.6827 55.9776 42.5614 55.7886 42.4572C55.7113 42.4146 55.6393 42.3749 55.5755 42.339C55.3074 42.1882 55.0484 42.0068 54.7593 41.8043C54.7304 41.7839 54.7011 41.7634 54.6715 41.7427C54.3585 41.5238 54.009 41.2837 53.631 41.0948C53.5913 41.0749 53.5464 41.0534 53.4978 41.0301C53.3643 40.966 53.2028 40.8885 53.0426 40.795C52.9457 40.7385 52.8748 40.6901 52.8305 40.6537ZM56.3303 44.2701C56.3303 44.27 56.3311 44.2712 56.3324 44.2739C56.331 44.2715 56.3303 44.2702 56.3303 44.2701Z" fill="white"/>
<path fill-rule="evenodd" clip-rule="evenodd" d="M62.3639 64.4844C62.3648 64.4729 62.3657 64.4762 62.3635 64.4898C62.3636 64.488 62.3638 64.4862 62.3639 64.4844ZM62.2472 66.9287C62.2317 67.6394 62.2284 68.3564 62.2284 69.0793C62.2284 69.425 61.9481 69.7053 61.6024 69.7053C61.2567 69.7053 60.9765 69.425 60.9765 69.0793C60.9765 67.5158 60.9916 65.9395 61.116 64.3845C61.125 64.2713 61.1579 64.0179 61.3638 63.8257C61.6345 63.5729 61.9584 63.6262 62.12 63.6884C62.2686 63.7455 62.3841 63.8397 62.4538 63.9024C62.5328 63.9733 62.6068 64.0536 62.6715 64.1297C62.9154 64.4168 63.1692 64.8164 63.2377 64.961C63.4662 65.4434 63.2915 65.8507 63.1843 66.0653C63.1551 66.1239 63.1351 66.1614 63.1193 66.1911C63.099 66.2292 63.0857 66.2542 63.0685 66.2942C63.0584 66.3175 63.0547 66.3303 63.0534 66.3352C63.0502 66.6781 62.7712 66.955 62.4275 66.955C62.3648 66.955 62.3043 66.9458 62.2472 66.9287ZM61.6023 64.8213C61.6023 64.8212 61.6036 64.8221 61.6062 64.8242C61.6036 64.8224 61.6023 64.8214 61.6023 64.8213Z" fill="white"/>
<path fill-rule="evenodd" clip-rule="evenodd" d="M54.9774 66.6317C55.2866 66.7863 55.4119 67.1623 55.2573 67.4715C55.18 67.6261 55.0619 67.7363 54.9981 67.7927C54.9235 67.8587 54.8398 67.9214 54.776 67.969C54.7669 67.9757 54.7581 67.9823 54.7496 67.9886C54.6907 68.0325 54.6444 68.0669 54.6027 68.1009C54.5637 68.1327 54.5471 68.1496 54.5433 68.1534C54.5423 68.1545 54.5422 68.1546 54.5429 68.1537C53.3714 69.6334 52.6556 71.5674 52.4836 73.4654C52.3687 74.7332 52.3708 76.0073 52.3729 77.3133C52.3732 77.4896 52.3735 77.6665 52.3735 77.844C52.3735 78.1675 52.3653 78.4784 52.3573 78.7804C52.339 79.4758 52.3219 80.1244 52.4089 80.7721C52.6492 82.5621 53.438 84.4734 54.5451 85.8881C54.7582 86.1603 54.7102 86.5537 54.4379 86.7668C54.1657 86.9799 53.7723 86.9319 53.5592 86.6596C52.3103 85.0638 51.437 82.9419 51.1681 80.9387C51.067 80.1858 51.0881 79.3774 51.1073 78.6415C51.1146 78.363 51.1216 78.0948 51.1216 77.844C51.1216 77.6692 51.1213 77.4936 51.121 77.3173C51.1187 76.0173 51.1163 74.6819 51.2368 73.3524C51.4284 71.2373 52.2237 69.0662 53.5614 67.3766C53.6428 67.2737 53.739 67.1898 53.8116 67.1306C53.8768 67.0775 53.9477 67.0247 54.0043 66.9827C54.0125 66.9766 54.0205 66.9707 54.0281 66.965C54.0956 66.9147 54.1388 66.8814 54.1686 66.8551C54.1693 66.8544 54.1701 66.8537 54.1708 66.8531C54.3413 66.5871 54.6885 66.4872 54.9774 66.6317ZM54.1866 66.8379C54.1867 66.8379 54.1855 66.8393 54.1826 66.8421C54.185 66.8393 54.1865 66.8379 54.1866 66.8379Z" fill="white"/>
<path fill-rule="evenodd" clip-rule="evenodd" d="M56.2299 69.4046C56.4833 69.6398 56.4979 70.0359 56.2627 70.2892C55.525 71.0837 55.0316 71.765 54.9199 72.7029C54.7881 73.8086 54.8139 74.939 54.8405 76.103C54.8516 76.588 54.8628 77.0788 54.8628 77.5761C54.8628 77.8762 54.8577 78.1687 54.8526 78.4554C54.8388 79.2346 54.8258 79.9713 54.9192 80.7028C55.0027 81.3565 55.1922 81.9851 55.3973 82.6652C55.4527 82.8492 55.5094 83.0369 55.5653 83.23C55.5853 83.299 55.611 83.3753 55.6428 83.4682C55.646 83.4774 55.6492 83.4867 55.6524 83.4963C55.6806 83.5783 55.7128 83.6721 55.7423 83.7669C55.8065 83.9732 55.8769 84.2403 55.8769 84.5207C55.8769 84.8664 55.5966 85.1467 55.2509 85.1467C54.9052 85.1467 54.6249 84.8664 54.6249 84.5207C54.6249 84.4343 54.6013 84.3138 54.5469 84.139C54.5231 84.0624 54.4969 83.986 54.4679 83.9016C54.4648 83.8925 54.4617 83.8833 54.4585 83.874C54.4273 83.7829 54.3923 83.6801 54.3629 83.5785C54.3158 83.4163 54.2653 83.2491 54.2135 83.0779C54.0044 82.3865 53.7754 81.6291 53.6774 80.8614C53.5715 80.0319 53.587 79.1613 53.6014 78.3558C53.6062 78.0874 53.6109 77.8262 53.6109 77.5761C53.6109 77.1421 53.6006 76.6888 53.59 76.2247C53.5628 75.0255 53.5339 73.7539 53.6767 72.5548C53.8376 71.2044 54.5675 70.275 55.3453 69.4373C55.5805 69.184 55.9766 69.1693 56.2299 69.4046Z" fill="white"/>
<path fill-rule="evenodd" clip-rule="evenodd" d="M41.9763 34.208C42.322 34.208 42.6023 34.4883 42.6023 34.834C42.6023 37.4808 43.2076 39.8561 44.6837 42.0659C47.4342 46.1836 51.8179 49.0498 56.726 49.0498C57.0717 49.0498 57.3519 49.3301 57.3519 49.6758C57.3519 50.0215 57.0717 50.3017 56.726 50.3017C51.3106 50.3017 46.5712 47.1454 43.6427 42.7613C42.0087 40.3152 41.3504 37.6889 41.3504 34.834C41.3504 34.4883 41.6306 34.208 41.9763 34.208Z" fill="white"/>
<path fill-rule="evenodd" clip-rule="evenodd" d="M87.6153 26.6064C87.9611 26.6064 88.2413 26.8867 88.2413 27.2324C88.2413 27.9206 88.2363 28.6044 88.2314 29.2856C88.2216 30.6384 88.2119 31.9813 88.2412 33.3293C88.2579 34.0998 88.4358 34.8206 88.669 35.5786C88.7299 35.7765 88.796 35.9807 88.8637 36.1899C89.0473 36.7575 89.243 37.3622 89.3803 37.9801C89.5225 38.6199 89.7954 39.2835 90.1553 39.7818C90.2812 39.9562 90.3885 40.1542 90.4798 40.3311C90.5156 40.4004 90.5483 40.4652 90.5798 40.5277C90.6362 40.6394 90.6888 40.7435 90.7482 40.8524C90.9393 41.2029 91.0824 41.3656 91.1997 41.4242C91.5089 41.5788 91.6342 41.9548 91.4796 42.264C91.325 42.5732 90.949 42.6986 90.6398 42.544C90.1427 42.2954 89.8435 41.8084 89.6491 41.4518C89.5809 41.3269 89.5117 41.19 89.4495 41.0669C89.4203 41.0091 89.3926 40.9543 89.3673 40.9053C89.2798 40.7358 89.208 40.6086 89.1403 40.5148C88.6615 39.8518 88.3295 39.0225 88.1582 38.2517C88.0346 37.6955 87.8667 37.1767 87.6896 36.6294C87.618 36.408 87.5448 36.1819 87.4725 35.9468C87.2284 35.1539 87.0101 34.3015 86.9895 33.3565C86.9598 31.9911 86.9698 30.6157 86.9796 29.2516C86.9845 28.5749 86.9894 27.901 86.9894 27.2324C86.9894 26.8867 87.2696 26.6064 87.6153 26.6064Z" fill="white"/>
<path fill-rule="evenodd" clip-rule="evenodd" d="M106.697 1.7412C106.697 1.39549 106.978 1.11523 107.323 1.11523C107.774 1.11523 108.208 1.19861 108.601 1.29691C108.799 1.34625 108.994 1.40123 109.177 1.45348C109.191 1.45745 109.205 1.4614 109.219 1.46533C109.39 1.51404 109.551 1.55978 109.709 1.60059C110.199 1.72709 110.688 1.85454 111.177 1.98185C112.861 2.42038 114.539 2.85738 116.224 3.24919C116.913 3.40943 117.582 3.58003 118.243 3.7487C119.351 4.03129 120.437 4.30846 121.562 4.52242C121.811 4.56964 122.05 4.60209 122.307 4.63706C122.467 4.6588 122.634 4.68151 122.816 4.70936C123.258 4.77736 123.738 4.87122 124.196 5.05445C124.517 5.18284 124.673 5.54713 124.544 5.86812C124.416 6.1891 124.052 6.34522 123.731 6.21683C123.407 6.08742 123.04 6.01053 122.625 5.94674C122.491 5.92609 122.344 5.90593 122.191 5.88502C121.907 5.84606 121.603 5.8045 121.329 5.7523C120.174 5.53269 119.011 5.23664 117.871 4.94631C117.219 4.78005 116.573 4.61566 115.941 4.46857C114.238 4.07266 112.539 3.63009 110.852 3.19083C110.366 3.06415 109.88 2.93773 109.396 2.8128C109.222 2.7679 109.047 2.71797 108.879 2.67014C108.864 2.66594 108.849 2.66176 108.835 2.6576C108.65 2.60515 108.474 2.55537 108.298 2.51158C107.946 2.4236 107.625 2.36716 107.323 2.36716C106.978 2.36716 106.697 2.0869 106.697 1.7412Z" fill="white"/>
<path fill-rule="evenodd" clip-rule="evenodd" d="M122.354 1.77564C122.145 1.77677 121.935 1.77791 121.722 1.77791C121.376 1.77791 121.096 1.49766 121.096 1.15195C121.096 0.806243 121.376 0.525991 121.722 0.525991C121.919 0.525991 122.12 0.524887 122.322 0.523771C122.999 0.520042 123.698 0.516188 124.391 0.553104C125.126 0.592352 125.833 0.718963 126.496 0.839982C126.516 0.843542 126.535 0.847097 126.555 0.850646C127.208 0.969833 127.818 1.08127 128.439 1.1241C128.878 1.15438 129.317 1.23047 129.718 1.30002C129.775 1.30994 129.832 1.31972 129.887 1.32921C130.348 1.40804 130.762 1.4701 131.163 1.4701C131.508 1.4701 131.789 1.75035 131.789 2.09606C131.789 2.44177 131.508 2.72202 131.163 2.72202C130.645 2.72202 130.138 2.6422 129.676 2.56322C129.617 2.55309 129.559 2.54299 129.501 2.53302C129.093 2.46262 128.723 2.39857 128.353 2.37305C127.66 2.3253 126.988 2.2025 126.354 2.08659C126.326 2.08157 126.299 2.07656 126.271 2.07158C125.601 1.94929 124.969 1.83766 124.324 1.80325C123.672 1.76849 123.023 1.77201 122.354 1.77564Z" fill="white"/>
<path fill-rule="evenodd" clip-rule="evenodd" d="M90.8876 37.4368C90.922 37.0928 91.2288 36.8418 91.5728 36.8762C91.9669 36.9156 92.3497 37.1328 92.6153 37.3027C92.8025 37.4224 93.0073 37.5714 93.162 37.6839C93.2294 37.7329 93.2873 37.775 93.33 37.8047C94.1052 38.344 94.8739 38.7892 95.7309 39.2307C96.527 39.6408 97.3171 40.1523 98.0681 40.6385C98.3912 40.8476 98.707 41.0521 99.0129 41.2418C99.5018 41.5449 99.9987 41.8372 100.503 42.134C100.545 42.1584 100.586 42.1829 100.628 42.2074C101.173 42.528 101.725 42.8546 102.269 43.1983C103.5 43.9759 104.824 44.5165 106.25 44.9738C106.704 45.1195 107.14 45.2712 107.565 45.4195C108.631 45.7909 109.635 46.1411 110.725 46.3227C112.433 46.6073 114.034 47.2184 115.32 48.5037C115.564 48.7482 115.564 49.1445 115.32 49.389C115.075 49.6334 114.679 49.6334 114.435 49.389C113.393 48.3471 112.066 47.8155 110.519 47.5576C109.317 47.3571 108.159 46.9537 107.057 46.5697C106.653 46.4288 106.256 46.2906 105.868 46.1659C104.386 45.6906 102.954 45.1112 101.601 44.2568C101.075 43.9249 100.538 43.6073 99.9929 43.2863C99.9507 43.2615 99.9085 43.2367 99.8663 43.2118C99.3642 42.9165 98.8551 42.617 98.3532 42.3058C98.0014 42.0876 97.6605 41.8668 97.3245 41.6492C96.5994 41.1795 95.8972 40.7247 95.1576 40.3437C94.2649 39.8838 93.4464 39.4108 92.6151 38.8324C92.5304 38.7736 92.4508 38.7154 92.3711 38.6572C92.2356 38.5582 92.1002 38.4593 91.9408 38.3573C91.6843 38.1933 91.5208 38.1292 91.4482 38.1219C91.1042 38.0875 90.8532 37.7808 90.8876 37.4368Z" fill="white"/>
<path fill-rule="evenodd" clip-rule="evenodd" d="M92.6593 35.0542C92.7061 34.7116 93.0216 34.4718 93.3641 34.5185C93.7545 34.5717 94.0865 34.7253 94.3583 34.8757C94.4861 34.9465 94.6103 35.0222 94.7213 35.09C94.7281 35.0941 94.7348 35.0982 94.7415 35.1023C94.8619 35.1757 94.9677 35.2397 95.0722 35.2962C95.2795 35.4083 95.485 35.5099 95.7018 35.617C95.7843 35.6577 95.8684 35.6993 95.9548 35.7425C96.2597 35.8951 96.5803 36.0623 96.895 36.2636C98.4623 37.2659 100.26 37.9618 102.07 38.6625L102.147 38.692C102.892 38.9806 103.644 39.3066 104.383 39.6274C104.755 39.7888 105.124 39.9489 105.488 40.1023C106.592 40.5678 107.681 40.9869 108.793 41.2648C109.26 41.3815 109.733 41.4927 110.21 41.6046C111.776 41.9726 113.38 42.3494 114.923 42.9621C115.632 43.2436 116.478 43.6685 117.26 44.1792C118.034 44.6846 118.792 45.3033 119.28 45.9862C119.481 46.2675 119.416 46.6584 119.134 46.8594C118.853 47.0603 118.462 46.9952 118.261 46.7138C117.904 46.2141 117.294 45.6963 116.576 45.2276C115.866 44.7642 115.095 44.3774 114.461 44.1257C113.012 43.5503 111.532 43.2021 109.985 42.8385C109.493 42.723 108.995 42.6058 108.489 42.4793C107.283 42.1778 106.123 41.7287 105.002 41.2559C104.612 41.0914 104.23 40.9257 103.852 40.7618C103.128 40.4475 102.418 40.1396 101.695 39.8595C101.653 39.8431 101.61 39.8267 101.568 39.8103C99.7942 39.124 97.8948 38.3891 96.2205 37.3183C95.9626 37.1533 95.6894 37.0096 95.3947 36.8622C95.3205 36.825 95.2438 36.7872 95.1656 36.7485C94.9422 36.6382 94.7059 36.5214 94.4766 36.3974C94.3397 36.3233 94.2076 36.2431 94.0897 36.1712C94.0852 36.1684 94.0807 36.1657 94.0763 36.163C93.9595 36.0917 93.856 36.0286 93.752 35.971C93.5365 35.8518 93.3624 35.7818 93.195 35.759C92.8525 35.7122 92.6126 35.3967 92.6593 35.0542Z" fill="white"/>
<path fill-rule="evenodd" clip-rule="evenodd" d="M89.9458 30.0942C89.9947 29.7519 90.3117 29.5141 90.654 29.563C91.5264 29.6877 92.3668 30.0178 93.141 30.3752C93.484 30.5336 93.8235 30.702 94.1496 30.8637C94.1928 30.8851 94.2357 30.9064 94.2784 30.9276C94.6475 31.1104 94.9989 31.2824 95.3404 31.4319C97.441 32.3518 99.5395 33.2802 101.623 34.2579C102.359 34.6033 103.073 34.964 103.779 35.3206C105.045 35.9595 106.284 36.5853 107.576 37.0864C108.709 37.5257 109.859 37.9048 111.025 38.2816C111.17 38.3285 111.315 38.3754 111.461 38.4223C112.481 38.7512 113.514 39.0841 114.538 39.4547C114.834 39.5615 115.144 39.6659 115.462 39.7731C116.427 40.0985 117.467 40.4489 118.393 40.9652C118.551 41.0531 118.761 41.1551 119.017 41.2801C119.108 41.3241 119.204 41.3709 119.306 41.4209C119.682 41.606 120.112 41.8246 120.518 42.07C120.919 42.3127 121.326 42.5993 121.639 42.9298C121.947 43.2552 122.229 43.6923 122.229 44.2263C122.229 44.572 121.949 44.8522 121.603 44.8522C121.257 44.8522 120.977 44.572 120.977 44.2263C120.977 44.1504 120.936 44.0079 120.73 43.7907C120.529 43.5787 120.231 43.3599 119.87 43.1411C119.513 42.9251 119.123 42.7261 118.753 42.5444C118.668 42.5026 118.583 42.4611 118.499 42.4201C118.231 42.2897 117.975 42.165 117.784 42.0588C116.967 41.6035 116.087 41.3065 115.152 40.9912C114.812 40.8767 114.466 40.7598 114.113 40.632C113.11 40.2694 112.1 39.9438 111.078 39.6143C110.932 39.5673 110.786 39.5202 110.64 39.4729C109.473 39.0957 108.293 38.7071 107.123 38.2536C105.781 37.7331 104.437 37.0551 103.131 36.3965C102.438 36.0472 101.756 35.7033 101.091 35.3912C99.0232 34.4209 96.9371 33.4979 94.8382 32.5787C94.4666 32.416 94.0913 32.232 93.7227 32.0494C93.6794 32.028 93.6362 32.0065 93.5931 31.9852C93.2652 31.8226 92.9423 31.6624 92.6162 31.5118C91.8756 31.1699 91.1672 30.901 90.4769 30.8024C90.1347 30.7535 89.8969 30.4364 89.9458 30.0942Z" fill="white"/>
<path fill-rule="evenodd" clip-rule="evenodd" d="M91.7097 28.5303C91.7097 28.1845 91.99 27.9043 92.3357 27.9043C94.1025 27.9043 95.8313 27.9682 97.6216 28.5224C100.113 29.2934 102.619 30.1942 105.018 31.2485C105.985 31.6733 106.965 32.0868 107.949 32.5019C109.823 33.2925 111.711 34.0892 113.55 34.9824C114.606 35.4954 115.638 35.9702 116.717 36.3918C117.264 36.6056 117.84 36.7647 118.452 36.9339C118.546 36.9596 118.64 36.9856 118.735 37.0121C119.437 37.2078 120.18 37.4272 120.877 37.7608C121.386 38.0047 121.921 38.1936 122.494 38.3957L122.495 38.3963C123.057 38.5945 123.656 38.8059 124.236 39.0862C124.306 39.1201 124.397 39.1587 124.52 39.2104C124.541 39.2194 124.563 39.2289 124.587 39.2388C124.734 39.3011 124.908 39.3758 125.079 39.4606C125.248 39.5445 125.433 39.6466 125.597 39.7689C125.756 39.8863 125.941 40.0553 126.057 40.2877C126.212 40.5969 126.087 40.9729 125.777 41.1275C125.47 41.2811 125.097 41.1583 124.941 40.8534C124.94 40.8531 124.919 40.8248 124.851 40.7741C124.771 40.7146 124.661 40.6504 124.524 40.5825C124.388 40.5155 124.244 40.453 124.099 40.3916C124.079 40.3833 124.059 40.3748 124.038 40.3662C123.919 40.3159 123.792 40.2624 123.691 40.2133C123.183 39.9679 122.649 39.7781 122.077 39.5763L122.05 39.5666C121.496 39.3713 120.907 39.1633 120.336 38.8899C119.748 38.6084 119.1 38.4134 118.399 38.2181C118.309 38.193 118.217 38.1678 118.125 38.1424C117.518 37.9748 116.873 37.797 116.261 37.5578C115.139 37.1191 114.073 36.6284 113.003 36.1086C111.191 35.2285 109.36 34.456 107.507 33.6746C106.516 33.2564 105.518 32.8357 104.515 32.3946C102.168 31.3633 99.7074 30.4785 97.2514 29.7183C95.6518 29.2232 94.0828 29.1562 92.3357 29.1562C91.99 29.1562 91.7097 28.876 91.7097 28.5303Z" fill="white"/>
<path fill-rule="evenodd" clip-rule="evenodd" d="M125.108 34.3135C125.108 33.9678 125.388 33.6875 125.734 33.6875C127.111 33.6875 128.209 33.8198 129.545 34.2334C129.706 34.2834 129.904 34.361 130.071 34.4264C130.154 34.4589 130.229 34.4884 130.288 34.51C130.514 34.5923 130.677 34.6316 130.809 34.6316C131.154 34.6316 131.435 34.9119 131.435 35.2576C131.435 35.6033 131.154 35.8835 130.809 35.8835C130.451 35.8835 130.12 35.7813 129.859 35.6862C129.73 35.639 129.627 35.5981 129.535 35.5615C129.408 35.5111 129.302 35.4689 129.175 35.4294C127.978 35.059 127.008 34.9394 125.734 34.9394C125.388 34.9394 125.108 34.6592 125.108 34.3135Z" fill="white"/>
<path fill-rule="evenodd" clip-rule="evenodd" d="M131.008 32.6601C131.008 32.3144 131.289 32.0342 131.634 32.0342C133.354 32.0342 135.005 32.2914 136.628 32.5442C137.08 32.6145 137.529 32.6845 137.977 32.7486C138.32 32.7974 138.558 33.1145 138.509 33.4567C138.46 33.799 138.143 34.0368 137.8 33.9879C137.318 33.9189 136.846 33.8455 136.38 33.7732C134.773 33.5234 133.247 33.2861 131.634 33.2861C131.289 33.2861 131.008 33.0058 131.008 32.6601Z" fill="white"/>
<path fill-rule="evenodd" clip-rule="evenodd" d="M138.126 4.37323C138.01 4.37348 137.892 4.37374 137.772 4.37374C137.426 4.37374 137.146 4.09349 137.146 3.74778C137.146 3.40207 137.426 3.12182 137.772 3.12182C137.898 3.12182 138.024 3.1214 138.15 3.12097C139.478 3.11649 140.826 3.11195 142.239 3.60226C144.393 4.34995 146.325 5.30904 148.308 6.30977C149.358 6.84004 150.284 7.48887 151.186 8.12165C151.388 8.26344 151.589 8.40443 151.79 8.54309C151.841 8.57824 151.892 8.61346 151.943 8.64861C152.538 9.06034 153.119 9.46266 153.665 9.64468C153.993 9.75401 154.171 10.1085 154.061 10.4365C153.952 10.7644 153.597 10.9417 153.269 10.8324C152.542 10.5898 151.81 10.0808 151.249 9.69121C151.191 9.65059 151.134 9.61127 151.08 9.57369C150.861 9.42323 150.649 9.27438 150.44 9.12786C149.542 8.49903 148.706 7.91312 147.744 7.42739C145.758 6.42521 143.894 5.50197 141.828 4.78496C140.626 4.36775 139.487 4.37024 138.126 4.37323Z" fill="white"/>
<path fill-rule="evenodd" clip-rule="evenodd" d="M143.328 1.29609C143.138 1.30031 142.94 1.30472 142.728 1.30472C142.382 1.30472 142.102 1.02446 142.102 0.678754C142.102 0.333045 142.382 0.0527927 142.728 0.0527927C142.88 0.0527927 143.044 0.0492354 143.216 0.0455093C143.652 0.0360914 144.137 0.0255943 144.59 0.0687249C145.464 0.151976 146.295 0.390685 147.078 0.655057C147.394 0.76162 147.692 0.868689 147.983 0.973201C148.442 1.13808 148.884 1.29659 149.347 1.43673C150.773 1.86779 152.413 2.46485 153.752 3.22984C153.963 3.35079 154.19 3.50123 154.397 3.63849C154.489 3.69933 154.577 3.75758 154.658 3.80953C154.947 3.99533 155.198 4.13634 155.435 4.21539C155.763 4.32471 155.941 4.6792 155.831 5.00717C155.722 5.33514 155.367 5.51239 155.039 5.40306C154.648 5.2725 154.289 5.06036 153.982 4.86303C153.865 4.78802 153.759 4.71753 153.658 4.65094C153.472 4.52755 153.307 4.41752 153.13 4.31681C151.911 3.62014 150.375 3.05526 148.985 2.63509C148.5 2.48834 147.996 2.30777 147.508 2.13324C147.223 2.03114 146.944 1.93112 146.677 1.84115C145.925 1.58709 145.202 1.38457 144.472 1.31501C144.094 1.27908 143.729 1.28718 143.328 1.29609Z" fill="white"/>
<path fill-rule="evenodd" clip-rule="evenodd" d="M153.904 1.62303C153.904 1.27732 154.184 0.99707 154.53 0.99707C155.524 0.99707 156.435 1.13447 157.333 1.27003C157.53 1.29973 157.726 1.32934 157.922 1.3574C158.265 1.40629 158.502 1.72336 158.454 2.0656C158.405 2.40783 158.088 2.64563 157.745 2.59674C157.529 2.56581 157.319 2.53431 157.115 2.50353C156.223 2.36941 155.422 2.24899 154.53 2.24899C154.184 2.24899 153.904 1.96874 153.904 1.62303Z" fill="white"/>
</svg>
